<?xml version="1.0" encoding="UTF-8" standalone="no"?>
<!-- Created with Inkscape (http://www.inkscape.org/) -->

<svg
   width="210mm"
   height="210mm"
   viewBox="0 0 210 210"
   version="1.1"
   id="svg1"
   xml:space="preserve"
   inkscape:version="1.3 (0e150ed, 2023-07-21)"
   sodipodi:docname="LOGO-kanaalab.svg"
   xmlns:inkscape="http://www.inkscape.org/namespaces/inkscape"
   xmlns:sodipodi="http://sodipodi.sourceforge.net/DTD/sodipodi-0.dtd"
   xmlns="http://www.w3.org/2000/svg"
   xmlns:svg="http://www.w3.org/2000/svg"><sodipodi:namedview
     id="namedview1"
     pagecolor="#ffffff"
     bordercolor="#000000"
     borderopacity="0.25"
     inkscape:showpageshadow="2"
     inkscape:pageopacity="0.0"
     inkscape:pagecheckerboard="0"
     inkscape:deskcolor="#d1d1d1"
     inkscape:document-units="mm"
     inkscape:zoom="0.35190488"
     inkscape:cx="470.29754"
     inkscape:cy="642.219"
     inkscape:window-width="1600"
     inkscape:window-height="766"
     inkscape:window-x="0"
     inkscape:window-y="0"
     inkscape:window-maximized="1"
     inkscape:current-layer="layer1" /><defs
     id="defs1" /><g
     inkscape:label="Layer 1"
     inkscape:groupmode="layer"
     id="layer1"><g
       id="g1"
       transform="translate(0,16.194575)"><path
         style="fill:#ff0000"
         d="m 99.950416,39.802738 c -0.54323,0.33574 -1.13339,0.63181 -1.31147,0.65795 -0.17807,0.0261 -0.66058,0.21554 -1.07223,0.4209 -0.59355,0.2961 -1.9162,0.35382 -6.39094,0.27889 -3.40892,-0.0571 -5.97121,0.0129 -6.4729,0.17668 -0.45672,0.14914 -1.24712,0.32181 -1.75644,0.38372 -0.50932,0.0619 -1.5809,0.19285 -2.38129,0.29101 -1.5674,0.19221 -1.56739,0.19222 -3.64172,-1.7316 l -0.86364,-0.80097 -4.03116,0.13013 c -2.21713,0.0716 -4.70725,0.13577 -5.5336,0.14266 -0.92299,0.008 -1.6373,0.15421 -1.85209,0.37988 -0.61943,0.65083 -1.13032,1.37754 -1.71199,2.43519 -0.47921,0.87135 -0.68723,1.02248 -1.32292,0.96116 -2.49899,-0.24105 -5.04135,-0.12447 -5.65462,0.25929 -0.79678,0.49859 -2.15786,0.7731 -2.57006,0.51834 -0.83078,-0.51345 -0.89703,-2.5921 -0.11393,-3.57478 0.13371,-0.1678 0.29961,-1.53424 0.36866,-3.03655 0.10371,-2.25635 0.216,-2.8219 0.64555,-3.25145 0.64459,-0.6446 1.30404,-0.43134 1.53705,0.49707 0.0957,0.38147 0.17176,1.71231 0.16893,2.95742 -0.007,3.00683 0.22054,3.31864 2.23634,3.06678 0.82509,-0.10309 1.87294,-0.41425 2.32856,-0.69147 0.45561,-0.27722 1.12605,-0.64889 1.48985,-0.82593 1.29179,-0.62862 5.17279,-3.21423 6.03665,-4.02175 0.4825,-0.45103 1.06223,-1.20829 1.28828,-1.68281 0.57617,-1.20948 1.35786,-1.32516 2.90673,-0.43014 0.70274,0.40608 1.33724,0.80929 1.41,0.89602 0.0728,0.0867 0.68913,0.47932 1.36972,0.87242 0.68058,0.39309 1.45448,0.98606 1.71979,1.31771 0.64631,0.80793 2.80748,2.04322 3.57469,2.04322 0.80204,0 1.33884,-0.84619 1.04349,-1.64491 -0.12286,-0.33223 -0.17914,-0.72851 -0.12508,-0.88062 0.0541,-0.1521 -0.1558,-0.54928 -0.46635,-0.88262 -0.46604,-0.50024 -0.54256,-0.83581 -0.4382,-1.92183 0.0695,-0.72367 0.25048,-1.43982 0.40211,-1.59145 0.63777,-0.63777 4.00035,-1.30037 7.31304,-1.44104 2.97519,-0.12633 3.52998,-0.0829 4.32488,0.33845 0.90043,0.47732 0.90988,0.50067 0.75316,1.86152 l -0.15872,1.37813 0.99322,0.25563 c 0.54626,0.1406 1.94571,0.47148 3.10988,0.73529 1.16416,0.26382 2.27403,0.60018 2.46636,0.74749 1.207714,0.92496 1.370104,1.2207 1.370104,2.49521 0,1.21731 -0.0638,1.34075 -0.987694,1.91176 z m -3.18355,-2.55306 c -0.25851,-0.35373 -1.96946,-0.94477 -3.76626,-1.30103 -2.19732,-0.43568 -6.21867,-0.11508 -7.61967,0.60747 -0.62555,0.32262 -1.20026,0.7505 -1.27714,0.95084 -0.15358,0.40022 0.33245,1.48295 0.63648,1.4179 0.10479,-0.0224 0.48819,0.042 0.85199,0.14321 0.3638,0.10119 1.79255,0.0488 3.175,-0.11643 1.38245,-0.16522 3.57548,-0.35414 4.87341,-0.41981 2.86639,-0.14503 3.70564,-0.48923 3.12619,-1.28215 z m -7.27199,-5.44124 c -4.92348,-0.15457 -7.38927,0.62399 -5.89745,1.86209 0.72591,0.60245 4.91425,-0.16148 6.16203,-1.12392 0.50959,-0.39306 0.3933,-0.71751 -0.26458,-0.73817 z m -16.4516,4.79276 c -0.49904,-0.30842 -0.94552,-0.64555 -0.99219,-0.74919 -0.0467,-0.10363 -0.48356,-0.41045 -0.97086,-0.68182 l -0.88601,-0.4934 -0.7517,0.75798 c -0.41343,0.4169 -0.997,0.98718 -1.29681,1.2673 -0.7608,0.71086 -0.68952,0.87785 0.44708,1.04737 2.14043,0.31924 5.35782,0.0919 5.35782,-0.37856 0,-0.11491 -0.4083,-0.46126 -0.90733,-0.76968 z m 8.63018,-18.93844 c -0.0529,0.43153 -0.57403,1.35545 -1.15819,2.05316 -1.58806,1.89677 -2.25974,2.96632 -2.72681,4.34206 -0.60303,1.77616 -0.44565,1.98961 1.31442,1.78275 1.89148,-0.22231 1.88363,0.0993 -0.036,1.47393 -1.94421,1.39221 -2.87549,1.43464 -3.41001,0.15535 -0.21086,-0.50465 -0.38338,-1.1724 -0.38338,-1.48389 0,-0.48261 -0.1052,-0.53995 -0.71146,-0.38779 -0.39131,0.0982 -1.03477,0.40878 -1.42991,0.69015 -0.39514,0.28136 -0.85228,0.51157 -1.01587,0.51157 -0.16359,0 -1.02153,0.36552 -1.90654,0.81228 -2.00931,1.01429 -3.04739,1.07752 -3.73568,0.22752 -0.37026,-0.45725 -0.47081,-0.87658 -0.36562,-1.52479 0.16149,-0.99512 1.0344,-2.79921 1.65439,-3.4192 0.60247,-0.60246 1.24974,-1.65121 1.10713,-1.79382 -0.30144,-0.30144 -3.4162,2.06726 -4.72711,3.59485 -0.79037,0.92101 -2.48861,2.7235 -3.77388,4.00553 -2.10987,2.10456 -2.43354,2.33096 -3.33243,2.33096 -1.35921,0 -2.01163,-0.7476 -1.9785,-2.26712 0.0258,-1.18303 -0.21328,-1.27982 -0.88061,-0.35649 -0.46284,0.64038 -2.57152,1.82986 -3.24393,1.82986 -0.91887,0 -1.53443,-0.4715 -1.72028,-1.31768 -0.19356,-0.88124 -0.66261,-1.34341 -0.66261,-0.65288 0,0.24305 -0.50548,1.05375 -1.12329,1.80155 -1.59972,1.93632 -1.60219,1.93843 -2.48756,2.13289 -1.9763,0.43407 -1.85002,-2.08975 0.27697,-5.53575 0.35928,-0.58208 0.95168,-1.6082 1.31643,-2.28026 0.36475,-0.67205 0.96789,-1.67093 1.34031,-2.21973 0.61222,-0.90216 0.90195,-1.9823 0.53171,-1.9823 -0.82567,0 -4.88166,3.54367 -4.88166,4.26505 0,0.14448 -0.33454,0.5834 -0.74343,0.97538 -0.40889,0.39198 -1.51022,1.65886 -2.4474,2.81529 -1.91486,2.36284 -3.3259,3.85053 -3.65214,3.85053 -0.50608,0 -1.09452,-1.03579 -1.09452,-1.92662 0,-1.0194 0.46667,-2.30672 0.83621,-2.30672 0.12217,0 0.22212,-0.16037 0.22212,-0.35639 0,-0.19601 0.24974,-0.6425 0.55498,-0.99218 0.30523,-0.34969 0.79536,-1.11205 1.08916,-1.69413 0.2938,-0.58209 0.68565,-1.23693 0.87078,-1.45521 0.46525,-0.54856 0.77834,-2.11667 0.42262,-2.11667 -0.15373,0 -0.48786,0.32742 -0.74252,0.7276 -0.25465,0.40019 -0.53315,0.78714 -0.61887,0.8599 -0.0857,0.0728 -0.53454,0.68891 -0.99737,1.36923 -0.46282,0.68031 -0.9964,1.39469 -1.18574,1.5875 -0.18933,0.19281 -0.71301,0.8896 -1.16373,1.54842 -0.79643,1.16414 -1.84885,2.47207 -2.79337,3.47155 -0.25467,0.26948 -0.46302,0.56614 -0.46302,0.65924 0,0.32627 -0.9316,0.87231 -1.50246,0.88065 -0.31703,0.005 -0.76351,-0.17869 -0.99219,-0.40736 -0.44955,-0.44955 -0.55629,-1.99019 -0.18779,-2.71048 0.36146,-0.70653 0.59559,-1.90094 0.37237,-1.89969 -0.11191,6.3e-4 -0.79879,0.54329 -1.52639,1.20592 -0.72761,0.66262 -1.82525,1.58484 -2.43922,2.04937 -0.61396,0.46454 -1.11998,0.99344 -1.12448,1.17534 -0.005,0.1819 -0.16602,0.33073 -0.35893,0.33073 -0.19292,0 -0.62714,0.2942 -0.96495,0.65378 -0.86889,0.92488 -2.1932,1.31813 -3.22624,0.95802 -1.11934,-0.39021 -1.5251,-1.00858 -1.53506,-2.33941 -0.0112,-1.49562 -0.39359,-1.42555 -1.8605,0.34093 -1.33212,1.60417 -1.75406,1.83436 -2.70186,1.47401 -1.03008,-0.39164 -1.40883,-1.62308 -1.02572,-3.33499 0.31455,-1.40555 0.16893,-3.30859 -0.25317,-3.30859 -0.46098,0 -3.4275802,1.40393 -3.4275802,1.62208 0,0.1265 -0.1177,0.23 -0.26156,0.23 -0.49495,0 -1.323335,0.91021 -1.604939,1.76348 -0.382422,1.15876 -2.698079,5.11285 -3.405764,5.81551 -0.574864,0.57078 -1.358914,0.57961 -2.06992,0.0233 -0.462763,-0.36207 -0.416199,-2.17492 0.06615,-2.57523 0.218281,-0.18115 0.396875,-0.49841 0.396875,-0.70502 0,-0.2066 0.120825,-0.51945 0.268501,-0.69521 0.797474,-0.94912 2.112749,-2.83108 2.112749,-3.02301 0,-0.12191 0.208359,-0.41467 0.46302,-0.65057 1.482798,-1.37359 2.179655,-2.7822 1.190625,-2.4067 -0.505273,0.19183 -1.275193,0.85624 -3.226276,2.78416 -1.340543,1.32463 -1.738259,1.47039 -2.49740604,0.91528 -0.697276,-0.50986 -0.0874,-1.67187 1.07962804,-2.05702 0.495207,-0.16343 1.042086,-0.52406 1.215287,-0.8014 0.173201,-0.27734 0.438276,-0.50426 0.589055,-0.50426 0.952635,0 9.3873952,-7.7538 9.3891452,-8.63113 5.4e-4,-0.27334 0.26688,-0.91371 0.59186,-1.42303 0.76954,-1.20607 1.67101,-2.8561 2.05986,-3.77032 0.17021,-0.40018 0.41688,-0.7276 0.54817,-0.7276 0.13128,0 0.2387,-0.17437 0.2387,-0.38749 0,-1.10598 5.64824,-10.0009298 6.92119,-10.89961981 0.68314,-0.48228 0.93918,-0.52848 1.6405,-0.29597 1.12189,0.37193 1.37371,0.658 1.85643,2.10879001 0.32589,0.97944 0.35127,1.42601 0.12031,2.11666 -0.40399,1.20808 -2.08033,3.39418 -4.51612,5.8894798 -1.12946,1.15704 -2.05356,2.17302 -2.05356,2.25773 0,0.0847 -1.24958,1.40022 -2.77685,2.92336 -1.52727,1.52314 -2.77743,2.91818 -2.77813,3.10008 -0.002,0.44545 0.57628,0.41776 1.20493,-0.0577 1.26434,-0.9563 2.76255,-0.23518 2.76255,1.32968 0,0.9115 -0.19087,1.19898 -1.86904,2.8151 -1.02798,0.98996 -1.98048,1.79993 -2.11667,1.79993 -0.38362,0 -0.29272,0.56996 0.17296,1.08453 0.27775,0.30691 0.4703,1.19009 0.56697,2.60052 0.0805,1.17468 0.23202,2.13578 0.33667,2.13578 0.24282,0 2.45395,-1.98263 4.88874,-4.38353 3.16593,-3.12188 4.9159,-4.42255 7.61621,-5.66077 1.41624,-0.64941 2.57499,-1.31944 2.57499,-1.48895 0,-0.16951 0.1786,-0.45642 0.39688,-0.63758 0.33259,-0.27603 0.39687,-0.23384 0.39687,0.26049 0,0.45824 0.10333,0.54721 0.46302,0.39867 1.36496,-0.56365 2.54312,-0.67683 2.93775,-0.2822 0.70237,0.70237 0.0296,3.19329 -1.66218,6.15459 -1.40481,2.45893 -1.92461,3.89058 -1.67954,4.62581 0.15235,0.45703 2.70207,-2.11349 3.23191,-3.25826 0.34645,-0.74856 2.00982,-3.27312 3.77964,-5.73651 0.96114,-1.3378 3.46334,-1.77493 3.88406,-0.67854 0.42648,1.11137 -0.0333,2.16261 -2.47754,5.66482 -0.25587,0.36661 -0.5461,0.92141 -0.64496,1.23288 -0.0989,0.31146 -0.35372,0.71069 -0.56636,0.88717 -0.52699,0.43736 -0.48595,0.78525 0.0926,0.78525 0.65088,0 1.22604,-0.58174 4.5779,-4.63021 1.4603,-1.7638 3.77682,-4.19992 4.63748,-4.87691 1.39493,-1.09725 3.26993,-0.42478 3.26993,1.17278 0,0.78634 -1.92591,4.43361 -3.11226,5.89394 -1.04493,1.28627 -2.06752,3.23415 -1.69786,3.23415 0.29911,0 1.643,-1.47551 2.95203,-3.24115 0.88806,-1.19782 1.27981,-1.52135 1.84217,-1.52135 0.40608,0 0.94464,-0.25685 1.24825,-0.59532 0.78993,-0.88061 1.90984,-1.78593 2.20927,-1.78593 0.14441,0 0.26257,-0.10614 0.26257,-0.23586 0,-0.12972 0.44648,-0.42414 0.99219,-0.65427 1.13766,-0.47976 2.33384,-1.42828 2.09828,-1.66385 -0.19463,-0.19463 -2.74182,0.60489 -3.52317,1.10585 -1.00057,0.64153 -0.9285,0.0587 0.11311,-0.9147 1.41127,-1.31893 1.89592,-1.55172 3.89561,-1.87117 1.84583,-0.29487 3.37869,-0.15 3.79921,0.35907 0.13768,0.16668 0.33079,0.73369 0.42914,1.26002 0.18733,1.00258 0.0568,1.21714 -2.31496,3.80471 -0.40056,0.43702 -0.79554,1.00293 -0.87773,1.25759 -0.0822,0.25466 -0.26046,0.46302 -0.39618,0.46302 -0.13571,0 -0.24675,0.13759 -0.24675,0.30576 0,0.16816 -0.29954,0.69847 -0.66564,1.17845 -0.74538,0.97725 -1.11565,2.33355 -0.70614,2.58664 0.58362,0.36069 1.79222,-0.48269 4.28719,-2.99165 1.43365,-1.44169 2.80688,-2.73333 3.05162,-2.87029 0.24474,-0.13696 1.4133,-1.19893 2.59679,-2.35992 1.18349,-1.16099 2.3304,-2.19263 2.54868,-2.29252 0.21828,-0.0999 0.87312,-0.4727 1.45521,-0.82847 1.78219,-1.08927 2.86369,-1.54056 3.96285,-1.65366 0.57885,-0.0596 1.65041,-0.26616 2.38125,-0.45913 0.73085,-0.19296 1.44787,-0.37708 1.59339,-0.40915 0.47833,-0.10541 1.31679,0.009 1.65848,0.22545 0.43933,0.27885 0.76138,1.56013 0.64042,2.54787 z m -3.95254,0.77252 c -0.25466,0.0757 -0.79044,0.21565 -1.19063,0.3111 -0.40018,0.0954 -0.7276,0.28672 -0.7276,0.42505 0,0.13834 -0.11634,0.17961 -0.25854,0.0917 -0.24464,-0.15119 -2.19993,0.8101 -3.09189,1.52009 -1.36762,1.0886 -3.46291,3.17889 -3.85343,3.84422 -0.43954,0.74887 -0.43672,0.79691 0.0739,1.25903 0.47896,0.43345 0.666,0.44764 1.91219,0.14511 2.62859,-0.63813 2.90977,-0.83929 5.28391,-3.78013 0.5457,-0.67597 0.99218,-1.35782 0.99218,-1.51523 0,-0.15741 0.0915,-0.2862 0.2033,-0.2862 0.26681,0 1.10355,-1.35657 1.11258,-1.80377 0.004,-0.20912 -0.17819,-0.29353 -0.45598,-0.211 z m -7.16889,0.95644 c -0.12297,0 -0.43908,0.23812 -0.70246,0.52916 -0.54354,0.6006 -0.37495,0.68519 0.40046,0.20094 0.53847,-0.33628 0.70137,-0.7301 0.302,-0.7301 z m -14.59101,3.62103 c -0.72646,0.3769 -1.82779,1.25281 -2.4474,1.94647 -1.85136,2.07262 -1.88072,2.11854 -1.55973,2.43953 0.57206,0.57206 2.54205,-0.97757 4.04604,-3.18268 0.46983,-0.68886 0.95048,-1.29217 1.06809,-1.34067 0.11761,-0.0485 0.21384,-0.19164 0.21384,-0.31806 0,-0.12643 -0.59438,0.0785 -1.32084,0.45541 z m -24.05214,-1.61996 c -0.46641,-0.28825 -2.87365,0.71469 -3.83981,1.59981 -0.5408,0.49544 -1.30314,1.07062 -1.69409,1.27817 -2.04625,1.08635 -5.8702,5.41885 -5.8702,6.65086 0,1.90626 1.81959,1.12936 5.80669,-2.47928 4.53053,-4.10047 4.79318,-4.37163 5.3067,-5.47876 0.57946,-1.24929 0.60322,-1.37765 0.29071,-1.5708 z M 21.827686,4.9719282 c -0.29104,0.26339 -0.52916,0.63311 -0.52916,0.82161 0,0.18849 -0.16122,0.43793 -0.35825,0.55431 -0.19704,0.11636 -0.50573,0.49225 -0.68597,0.83529 -0.42971,0.81783 0.0173,1.35441 0.67413,0.80926 0.51996,-0.43152 1.38263,-2.2645 1.40973,-2.99534 0.0181,-0.48729 10e-4,-0.48812 -0.51048,-0.0251 z m -2.34847,4.54497 c -0.27301,0.0714 -0.65977,0.4472 -0.85947,0.8351198 -0.1997,0.38793 -0.44314,0.76605 -0.54097,0.84026 -0.0978,0.0742 -0.26099,0.49094 -0.36257,0.92605 -0.17716,0.75889 -0.16759,0.76956 0.2352,0.26193 0.23093,-0.29104 0.42366,-0.678 0.42828,-0.8599 0.005,-0.1819 0.19404,-0.33073 0.42091,-0.33073 0.22687,0 0.35231,-0.0974 0.27875,-0.21638 -0.0735,-0.11902 0.098,-0.38343 0.38126,-0.58758 0.65878,-0.4748198 0.67088,-1.0393398 0.0186,-0.8687698 z m -4.86142,11.3423598 c -0.97824,0.29626 -2.12425,1.08306 -3.13715,2.15382 -1.12635,1.1907 -1.5040402,1.99503 -0.81812,1.7423 2.31316,-0.85227 6.04601,-4.5293 3.95527,-3.89612 z"
         id="path1"
         sodipodi:nodetypes="sssssssscssssssssssccsssssscsssscsssssscsssssssssssssscsscssscssssscsssssssssssssssssssssssssssssssssssssssscssssscssssscssssssssssssssssssssssssssssssssssssccssssssssssssssssssscssssssssssssssscssssssssssssssssscccscscssssssscsssssssssssssssssssscsssssccssssscscsssssss" /><path
         style="fill:#0000ff"
         d="m 99.95042,84.205451 c -0.54323,0.33574 -1.13339,0.63181 -1.31147,0.65795 -0.17807,0.0261 -0.66058,0.21554 -1.07223,0.4209 -0.59355,0.2961 -1.9162,0.35382 -6.39094,0.27889 -3.40892,-0.0571 -5.97121,0.0129 -6.4729,0.17668 -0.45672,0.14914 -1.24712,0.32181 -1.75644,0.38372 -0.50932,0.0619 -1.5809,0.19285 -2.38129,0.29101 -1.5674,0.19221 -1.56739,0.19222 -3.64172,-1.7316 l -0.86364,-0.80097 -4.031163,0.13013 c -2.21713,0.0716 -4.70725,0.13577 -5.5336,0.14266 -0.92299,0.008 -1.6373,0.15421 -1.85209,0.37988 -0.61943,0.65083 -1.13032,1.37754 -1.71199,2.43519 -0.47921,0.87135 -0.68723,1.02248 -1.32292,0.96116 -2.49899,-0.24105 -5.04135,-0.12447 -5.65462,0.25929 -0.796781,0.49859 -2.157861,0.7731 -2.570061,0.51834 -0.83078,-0.51345 -0.89703,-2.5921 -0.11393,-3.57478 0.13371,-0.1678 0.29961,-1.53424 0.36866,-3.03655 0.10371,-2.25635 0.216,-2.8219 0.64555,-3.25145 0.64459,-0.6446 1.304041,-0.43134 1.537051,0.49707 0.0957,0.38147 0.17176,1.71231 0.16893,2.95742 -0.007,3.00683 0.22054,3.31864 2.23634,3.06678 0.82509,-0.10309 1.87294,-0.41425 2.32856,-0.69147 0.45561,-0.27722 1.12605,-0.64889 1.48985,-0.82593 1.29179,-0.62862 5.17279,-3.21423 6.03665,-4.02175 0.4825,-0.45103 1.06223,-1.20829 1.28828,-1.68281 0.57617,-1.20948 1.35786,-1.32516 2.90673,-0.43014 0.70274,0.40608 1.33724,0.80929 1.41,0.89602 0.0728,0.0867 0.68913,0.47932 1.36972,0.87242 0.680583,0.39309 1.454483,0.98606 1.719793,1.31771 0.64631,0.80793 2.80748,2.04322 3.57469,2.04322 0.80204,0 1.33884,-0.84619 1.04349,-1.64491 -0.12286,-0.33223 -0.17914,-0.72851 -0.12508,-0.88062 0.0541,-0.1521 -0.1558,-0.54928 -0.46635,-0.88262 -0.46604,-0.50024 -0.54256,-0.83581 -0.4382,-1.92183 0.0695,-0.72367 0.25048,-1.43982 0.40211,-1.59145 0.63777,-0.63777 4.00035,-1.30037 7.31304,-1.44104 2.97519,-0.12633 3.52998,-0.0829 4.32488,0.33845 0.90043,0.47732 0.90988,0.50067 0.75316,1.86152 l -0.15872,1.37813 0.99322,0.25563 c 0.54626,0.1406 1.94571,0.47148 3.10988,0.73529 1.16416,0.26382 2.27403,0.60018 2.46636,0.74749 1.20771,0.92496 1.3701,1.2207 1.3701,2.49521 0,1.21731 -0.0638,1.34075 -0.98769,1.91176 z m -3.18355,-2.55306 c -0.25851,-0.35373 -1.96946,-0.94477 -3.76626,-1.30103 -2.19732,-0.43568 -6.21867,-0.11508 -7.61967,0.60747 -0.62555,0.32262 -1.20026,0.7505 -1.27714,0.95084 -0.15358,0.40022 0.33245,1.48295 0.63648,1.4179 0.10479,-0.0224 0.48819,0.042 0.85199,0.14321 0.3638,0.10119 1.79255,0.0488 3.175,-0.11643 1.38245,-0.16522 3.57548,-0.35414 4.87341,-0.41981 2.86639,-0.14503 3.70564,-0.48923 3.12619,-1.28215 z m -7.27199,-5.44124 c -4.92348,-0.15457 -7.38927,0.62399 -5.89745,1.86209 0.72591,0.60245 4.91425,-0.16148 6.16203,-1.12392 0.50959,-0.39306 0.3933,-0.71751 -0.26458,-0.73817 z m -16.451603,4.79276 c -0.49904,-0.30842 -0.94552,-0.64555 -0.99219,-0.74919 -0.0467,-0.10363 -0.48356,-0.41045 -0.97086,-0.68182 l -0.88601,-0.4934 -0.7517,0.75798 c -0.41343,0.4169 -0.997,0.98718 -1.29681,1.2673 -0.7608,0.71086 -0.68952,0.87785 0.44708,1.04737 2.14043,0.31924 5.35782,0.0919 5.35782,-0.37856 0,-0.11491 -0.4083,-0.46126 -0.90733,-0.76968 z m 8.630183,-18.93844 c -0.0529,0.43153 -0.57403,1.35545 -1.15819,2.05316 -1.58806,1.89677 -2.25974,2.96632 -2.72681,4.34206 -0.60303,1.77616 -0.44565,1.98961 1.31442,1.78275 1.89148,-0.22231 1.88363,0.0993 -0.036,1.47393 -1.94421,1.39221 -2.87549,1.43464 -3.41001,0.15535 -0.21086,-0.50465 -0.383383,-1.1724 -0.383383,-1.48389 0,-0.48261 -0.1052,-0.53995 -0.71146,-0.38779 -0.39131,0.0982 -1.03477,0.40878 -1.42991,0.69015 -0.39514,0.28136 -0.85228,0.51157 -1.01587,0.51157 -0.16359,0 -1.02153,0.36552 -1.90654,0.81228 -2.00931,1.01429 -3.04739,1.07752 -3.73568,0.22752 -0.37026,-0.45725 -0.47081,-0.87658 -0.36562,-1.52479 0.16149,-0.99512 1.0344,-2.79921 1.65439,-3.4192 0.60247,-0.60246 1.24974,-1.65121 1.10713,-1.79382 -0.30144,-0.30144 -3.4162,2.06726 -4.72711,3.59485 -0.79037,0.92101 -2.48861,2.7235 -3.77388,4.00553 -2.10987,2.10456 -2.43354,2.33096 -3.33243,2.33096 -1.35921,0 -2.011631,-0.7476 -1.978501,-2.26712 0.0258,-1.18303 -0.21328,-1.27982 -0.88061,-0.35649 -0.46284,0.64038 -2.57152,1.82986 -3.24393,1.82986 -0.91887,0 -1.53443,-0.4715 -1.72028,-1.31768 -0.19356,-0.88124 -0.66261,-1.34341 -0.66261,-0.65288 0,0.24305 -0.50548,1.05375 -1.12329,1.80155 -1.59972,1.93632 -1.60219,1.93843 -2.48756,2.13289 -1.9763,0.43407 -1.85002,-2.08975 0.27697,-5.53575 0.35928,-0.58208 0.95168,-1.6082 1.31643,-2.28026 0.36475,-0.67205 0.96789,-1.67093 1.34031,-2.21973 0.61222,-0.90216 0.90195,-1.9823 0.53171,-1.9823 -0.82567,0 -4.88166,3.54367 -4.88166,4.26505 0,0.14448 -0.33454,0.5834 -0.74343,0.97538 -0.40889,0.39198 -1.51022,1.65886 -2.4474,2.81529 -1.91486,2.36284 -3.3259,3.85053 -3.65214,3.85053 -0.50608,0 -1.09452,-1.03579 -1.09452,-1.92662 0,-1.0194 0.46667,-2.30672 0.83621,-2.30672 0.12217,0 0.22212,-0.16037 0.22212,-0.35639 0,-0.19601 0.24974,-0.6425 0.55498,-0.99218 0.30523,-0.34969 0.79536,-1.11205 1.08916,-1.69413 0.2938,-0.58209 0.68565,-1.23693 0.87078,-1.45521 0.46525,-0.54856 0.77834,-2.11667 0.42262,-2.11667 -0.15373,0 -0.48786,0.32742 -0.74252,0.7276 -0.25465,0.40019 -0.53315,0.78714 -0.61887,0.8599 -0.0857,0.0728 -0.53454,0.68891 -0.99737,1.36923 -0.46282,0.68031 -0.9964,1.39469 -1.18574,1.5875 -0.18933,0.19281 -0.71301,0.8896 -1.16373,1.54842 -0.79643,1.16414 -1.84885,2.47207 -2.79337,3.47155 -0.25467,0.26948 -0.46302,0.56614 -0.46302,0.65924 0,0.32627 -0.9316,0.87231 -1.50246,0.88065 -0.31703,0.005 -0.76351,-0.17869 -0.99219,-0.40736 -0.44955,-0.44955 -0.55629,-1.99019 -0.18779,-2.71048 0.36146,-0.70653 0.59559,-1.90094 0.37237,-1.89969 -0.11191,6.3e-4 -0.79879,0.54329 -1.52639,1.20592 -0.72761,0.66262 -1.82525,1.58484 -2.43922,2.04937 -0.61396,0.46454 -1.11998,0.99344 -1.12448,1.17534 -0.005,0.1819 -0.16602,0.33073 -0.35893,0.33073 -0.19292,0 -0.62714,0.2942 -0.96495,0.65378 -0.86889,0.92488 -2.1932,1.31813 -3.22624,0.95802 -1.11934,-0.39021 -1.5251,-1.00858 -1.53506,-2.33941 -0.0112,-1.49562 -0.39359,-1.42555 -1.8605,0.34093 -1.33212,1.60417 -1.75406,1.83436 -2.70186,1.47401 -1.03008,-0.39164 -1.40883,-1.62308 -1.02572,-3.33499 0.31455,-1.40555 0.16893,-3.30859 -0.25317,-3.30859 -0.46098,0 -3.42758,1.40393 -3.42758,1.62208 0,0.1265 -0.1177,0.23 -0.26156,0.23 -0.49495,0 -1.323335,0.91021 -1.604939,1.76348 -0.382422,1.15876 -2.698079,5.11285 -3.405764,5.81551 -0.574864,0.57078 -1.358914,0.57961 -2.06992,0.0233 -0.462763,-0.36207 -0.416199,-2.17492 0.06615,-2.57523 0.218281,-0.18115 0.396875,-0.49841 0.396875,-0.70502 0,-0.2066 0.120825,-0.51945 0.268501,-0.69521 0.797474,-0.94912 2.112749,-2.83108 2.112749,-3.02301 0,-0.12191 0.208359,-0.41467 0.46302,-0.65057 1.482798,-1.37359 2.179655,-2.7822 1.190625,-2.4067 -0.505273,0.19183 -1.275193,0.85624 -3.226276,2.78416 -1.340543,1.32463 -1.738259,1.47039 -2.497406,0.91528 -0.697276,-0.50986 -0.0874,-1.67187 1.079628,-2.05702 0.495207,-0.16343 1.042086,-0.52406 1.215287,-0.8014 0.173201,-0.27734 0.438276,-0.50426 0.589055,-0.50426 0.952635,0 9.387395,-7.7538 9.389145,-8.63113 5.4e-4,-0.27334 0.26688,-0.91371 0.59186,-1.42303 0.76954,-1.20607 1.67101,-2.8561 2.05986,-3.77032 0.17021,-0.40018 0.41688,-0.7276 0.54817,-0.7276 0.13128,0 0.2387,-0.17437 0.2387,-0.38749 0,-1.105984 5.64824,-10.000934 6.92119,-10.899624 0.68314,-0.48228 0.93918,-0.52848 1.6405,-0.29597 1.12189,0.37193 1.37371,0.658 1.85643,2.10879 0.32589,0.97944 0.35127,1.42601 0.12031,2.11666 -0.40399,1.20808 -2.08033,3.39418 -4.51612,5.88948 -1.12946,1.157044 -2.05356,2.173024 -2.05356,2.257734 0,0.0847 -1.24958,1.40022 -2.77685,2.92336 -1.52727,1.52314 -2.77743,2.91818 -2.77813,3.10008 -0.002,0.44545 0.57628,0.41776 1.20493,-0.0577 1.26434,-0.9563 2.76255,-0.23518 2.76255,1.32968 0,0.9115 -0.19087,1.19898 -1.86904,2.8151 -1.02798,0.98996 -1.98048,1.79993 -2.11667,1.79993 -0.38362,0 -0.29272,0.56996 0.17296,1.08453 0.27775,0.30691 0.4703,1.19009 0.56697,2.60052 0.0805,1.17468 0.23202,2.13578 0.33667,2.13578 0.24282,0 2.45395,-1.98263 4.88874,-4.38353 3.16593,-3.12188 4.9159,-4.42255 7.61621,-5.66077 1.41624,-0.64941 2.57499,-1.31944 2.57499,-1.48895 0,-0.16951 0.1786,-0.45642 0.39688,-0.63758 0.33259,-0.27603 0.39687,-0.23384 0.39687,0.26049 0,0.45824 0.10333,0.54721 0.46302,0.39867 1.36496,-0.56365 2.54312,-0.67683 2.93775,-0.2822 0.70237,0.70237 0.0296,3.19329 -1.66218,6.15459 -1.40481,2.45893 -1.92461,3.89058 -1.67954,4.62581 0.15235,0.45703 2.70207,-2.11349 3.23191,-3.25826 0.34645,-0.74856 2.00982,-3.27312 3.77964,-5.73651 0.96114,-1.3378 3.46334,-1.77493 3.88406,-0.67854 0.42648,1.11137 -0.0333,2.16261 -2.47754,5.66482 -0.25587,0.36661 -0.5461,0.92141 -0.64496,1.23288 -0.0989,0.31146 -0.35372,0.71069 -0.56636,0.88717 -0.52699,0.43736 -0.48595,0.78525 0.0926,0.78525 0.65088,0 1.22604,-0.58174 4.5779,-4.63021 1.4603,-1.7638 3.77682,-4.19992 4.63748,-4.87691 1.39493,-1.09725 3.26993,-0.42478 3.26993,1.17278 0,0.78634 -1.92591,4.43361 -3.11226,5.89394 -1.04493,1.28627 -2.06752,3.23415 -1.69786,3.23415 0.29911,0 1.643,-1.47551 2.95203,-3.24115 0.88806,-1.19782 1.27981,-1.52135 1.84217,-1.52135 0.40608,0 0.94464,-0.25685 1.24825,-0.59532 0.78993,-0.88061 1.90984,-1.78593 2.20927,-1.78593 0.14441,0 0.26257,-0.10614 0.26257,-0.23586 0,-0.12972 0.446481,-0.42414 0.992191,-0.65427 1.13766,-0.47976 2.33384,-1.42828 2.09828,-1.66385 -0.19463,-0.19463 -2.741821,0.60489 -3.523171,1.10585 -1.00057,0.64153 -0.9285,0.0587 0.11311,-0.9147 1.411271,-1.31893 1.895921,-1.55172 3.895611,-1.87117 1.84583,-0.29487 3.37869,-0.15 3.79921,0.35907 0.13768,0.16668 0.33079,0.73369 0.42914,1.26002 0.18733,1.00258 0.0568,1.21714 -2.31496,3.80471 -0.40056,0.43702 -0.79554,1.00293 -0.87773,1.25759 -0.0822,0.25466 -0.26046,0.46302 -0.39618,0.46302 -0.13571,0 -0.24675,0.13759 -0.24675,0.30576 0,0.16816 -0.29954,0.69847 -0.66564,1.17845 -0.74538,0.97725 -1.11565,2.33355 -0.70614,2.58664 0.58362,0.36069 1.79222,-0.48269 4.28719,-2.99165 1.43365,-1.44169 2.80688,-2.73333 3.05162,-2.87029 0.24474,-0.13696 1.4133,-1.19893 2.59679,-2.35992 1.18349,-1.16099 2.3304,-2.19263 2.54868,-2.29252 0.21828,-0.0999 0.87312,-0.4727 1.45521,-0.82847 1.78219,-1.08927 2.86369,-1.54056 3.962853,-1.65366 0.57885,-0.0596 1.65041,-0.26616 2.38125,-0.45913 0.73085,-0.19296 1.44787,-0.37708 1.59339,-0.40915 0.47833,-0.10541 1.31679,0.009 1.65848,0.22545 0.43933,0.27885 0.76138,1.56013 0.64042,2.54787 z m -3.95254,0.77252 c -0.25466,0.0757 -0.79044,0.21565 -1.19063,0.3111 -0.40018,0.0954 -0.7276,0.28672 -0.7276,0.42505 0,0.13834 -0.11634,0.17961 -0.25854,0.0917 -0.244643,-0.15119 -2.199933,0.8101 -3.091893,1.52009 -1.36762,1.0886 -3.46291,3.17889 -3.85343,3.84422 -0.43954,0.74887 -0.43672,0.79691 0.0739,1.25903 0.47896,0.43345 0.666,0.44764 1.91219,0.14511 2.62859,-0.63813 2.90977,-0.83929 5.283913,-3.78013 0.5457,-0.67597 0.99218,-1.35782 0.99218,-1.51523 0,-0.15741 0.0915,-0.2862 0.2033,-0.2862 0.26681,0 1.10355,-1.35657 1.11258,-1.80377 0.004,-0.20912 -0.17819,-0.29353 -0.45598,-0.211 z m -7.168893,0.95644 c -0.12297,0 -0.43908,0.23812 -0.70246,0.52916 -0.54354,0.6006 -0.37495,0.68519 0.40046,0.20094 0.53847,-0.33628 0.70137,-0.7301 0.302,-0.7301 z m -14.59101,3.62103 c -0.726461,0.3769 -1.827791,1.25281 -2.447401,1.94647 -1.85136,2.07262 -1.88072,2.11854 -1.55973,2.43953 0.57206,0.57206 2.54205,-0.97757 4.046041,-3.18268 0.46983,-0.68886 0.95048,-1.29217 1.06809,-1.34067 0.11761,-0.0485 0.21384,-0.19164 0.21384,-0.31806 0,-0.12643 -0.59438,0.0785 -1.32084,0.45541 z m -24.052141,-1.61996 c -0.46641,-0.28825 -2.87365,0.71469 -3.83981,1.59981 -0.5408,0.49544 -1.30314,1.07062 -1.69409,1.27817 -2.04625,1.08635 -5.8702,5.41885 -5.8702,6.65086 0,1.90626 1.81959,1.12936 5.80669,-2.47928 4.53053,-4.10047 4.79318,-4.37163 5.3067,-5.47876 0.57946,-1.24929 0.60322,-1.37765 0.29071,-1.5708 z M 21.827686,49.374637 c -0.29104,0.26339 -0.52916,0.63311 -0.52916,0.82161 0,0.18849 -0.16122,0.43793 -0.35825,0.55431 -0.19704,0.11636 -0.50573,0.49225 -0.68597,0.83529 -0.42971,0.81783 0.0173,1.35441 0.67413,0.80926 0.51996,-0.43152 1.38263,-2.2645 1.40973,-2.99534 0.0181,-0.48729 10e-4,-0.48812 -0.51048,-0.0251 z m -2.34847,4.54497 c -0.27301,0.0714 -0.65977,0.4472 -0.85947,0.83512 -0.1997,0.38793 -0.44314,0.76605 -0.54097,0.84026 -0.0978,0.0742 -0.26099,0.490944 -0.36257,0.926054 -0.17716,0.75889 -0.16759,0.76956 0.2352,0.26193 0.23093,-0.29104 0.42366,-0.678 0.42828,-0.8599 0.005,-0.1819 0.19404,-0.330734 0.42091,-0.330734 0.22687,0 0.35231,-0.0974 0.27875,-0.21638 -0.0735,-0.11902 0.098,-0.38343 0.38126,-0.58758 0.65878,-0.47482 0.67088,-1.03934 0.0186,-0.86877 z m -4.86142,11.342364 c -0.97824,0.29626 -2.12425,1.08306 -3.13715,2.15382 -1.12635,1.1907 -1.50404,1.99503 -0.81812,1.7423 2.31316,-0.85227 6.04601,-4.5293 3.95527,-3.89612 z"
         id="path1-2-3"
         sodipodi:nodetypes="sssssssscssssssssssccsssssscsssscsssssscsssssssssssssscsscssscssssscsssssssssssssssssssssssssssssssssssssssscssssscssssscssssssssssssssssssssssssssssssssssssccssssssssssssssssssscssssssssssssssscssssssssssssssssscccscscssssssscsssssssssssssssssssscsssssccssssscscsssssss" /><path
         style="fill:#00ff00"
         d="m 99.95042,128.60817 c -0.54323,0.33574 -1.13339,0.63181 -1.31147,0.65795 -0.17807,0.0261 -0.66058,0.21554 -1.07223,0.4209 -0.59355,0.2961 -1.9162,0.35382 -6.39094,0.27889 -3.40892,-0.0571 -5.97121,0.0129 -6.4729,0.17668 -0.45672,0.14914 -1.24712,0.32181 -1.75644,0.38372 -0.50932,0.0619 -1.5809,0.19285 -2.38129,0.29101 -1.5674,0.19221 -1.56739,0.19222 -3.64172,-1.7316 l -0.86364,-0.80097 -4.031163,0.13013 c -2.21713,0.0716 -4.70725,0.13577 -5.5336,0.14266 -0.92299,0.008 -1.6373,0.15421 -1.85209,0.37988 -0.61943,0.65083 -1.13032,1.37754 -1.71199,2.43519 -0.47921,0.87135 -0.68723,1.02248 -1.32292,0.96116 -2.49899,-0.24105 -5.04135,-0.12447 -5.65462,0.25929 -0.796781,0.49859 -2.157861,0.7731 -2.570061,0.51834 -0.83078,-0.51345 -0.89703,-2.5921 -0.11393,-3.57478 0.13371,-0.1678 0.29961,-1.53424 0.36866,-3.03655 0.10371,-2.25635 0.216,-2.8219 0.64555,-3.25145 0.64459,-0.6446 1.304041,-0.43134 1.537051,0.49707 0.0957,0.38147 0.17176,1.71231 0.16893,2.95742 -0.007,3.00683 0.22054,3.31864 2.23634,3.06678 0.82509,-0.10309 1.87294,-0.41425 2.32856,-0.69147 0.45561,-0.27722 1.12605,-0.64889 1.48985,-0.82593 1.29179,-0.62862 5.17279,-3.21423 6.03665,-4.02175 0.4825,-0.45103 1.06223,-1.20829 1.28828,-1.68281 0.57617,-1.20948 1.35786,-1.32516 2.90673,-0.43014 0.70274,0.40608 1.33724,0.80929 1.41,0.89602 0.0728,0.0867 0.68913,0.47932 1.36972,0.87242 0.680583,0.39309 1.454483,0.98606 1.719793,1.31771 0.64631,0.80793 2.80748,2.04322 3.57469,2.04322 0.80204,0 1.33884,-0.84619 1.04349,-1.64491 -0.12286,-0.33223 -0.17914,-0.72851 -0.12508,-0.88062 0.0541,-0.1521 -0.1558,-0.54928 -0.46635,-0.88262 -0.46604,-0.50024 -0.54256,-0.83581 -0.4382,-1.92183 0.0695,-0.72367 0.25048,-1.43982 0.40211,-1.59145 0.63777,-0.63777 4.00035,-1.30037 7.31304,-1.44104 2.97519,-0.12633 3.52998,-0.0829 4.32488,0.33845 0.90043,0.47732 0.90988,0.50067 0.75316,1.86152 l -0.15872,1.37813 0.99322,0.25563 c 0.54626,0.1406 1.94571,0.47148 3.10988,0.73529 1.16416,0.26382 2.27403,0.60018 2.46636,0.74749 1.20771,0.92496 1.3701,1.2207 1.3701,2.49521 0,1.21731 -0.0638,1.34075 -0.98769,1.91176 z m -3.18355,-2.55306 c -0.25851,-0.35373 -1.96946,-0.94477 -3.76626,-1.30103 -2.19732,-0.43568 -6.21867,-0.11508 -7.61967,0.60747 -0.62555,0.32262 -1.20026,0.7505 -1.27714,0.95084 -0.15358,0.40022 0.33245,1.48295 0.63648,1.4179 0.10479,-0.0224 0.48819,0.042 0.85199,0.14321 0.3638,0.10119 1.79255,0.0488 3.175,-0.11643 1.38245,-0.16522 3.57548,-0.35414 4.87341,-0.41981 2.86639,-0.14503 3.70564,-0.48923 3.12619,-1.28215 z m -7.27199,-5.44124 c -4.92348,-0.15457 -7.38927,0.62399 -5.89745,1.86209 0.72591,0.60245 4.91425,-0.16148 6.16203,-1.12392 0.50959,-0.39306 0.3933,-0.71751 -0.26458,-0.73817 z m -16.451603,4.79276 c -0.49904,-0.30842 -0.94552,-0.64555 -0.99219,-0.74919 -0.0467,-0.10363 -0.48356,-0.41045 -0.97086,-0.68182 l -0.88601,-0.4934 -0.7517,0.75798 c -0.41343,0.4169 -0.997,0.98718 -1.29681,1.2673 -0.7608,0.71086 -0.68952,0.87785 0.44708,1.04737 2.14043,0.31924 5.35782,0.0919 5.35782,-0.37856 0,-0.11491 -0.4083,-0.46126 -0.90733,-0.76968 z m 8.630183,-18.93844 c -0.0529,0.43153 -0.57403,1.35545 -1.15819,2.05316 -1.58806,1.89677 -2.25974,2.96632 -2.72681,4.34206 -0.60303,1.77616 -0.44565,1.98961 1.31442,1.78275 1.89148,-0.22231 1.88363,0.0993 -0.036,1.47393 -1.94421,1.39221 -2.87549,1.43464 -3.41001,0.15535 -0.21086,-0.50465 -0.383383,-1.1724 -0.383383,-1.48389 0,-0.48261 -0.1052,-0.53995 -0.71146,-0.38779 -0.39131,0.0982 -1.03477,0.40878 -1.42991,0.69015 -0.39514,0.28136 -0.85228,0.51157 -1.01587,0.51157 -0.16359,0 -1.02153,0.36552 -1.90654,0.81228 -2.00931,1.01429 -3.04739,1.07752 -3.73568,0.22752 -0.37026,-0.45725 -0.47081,-0.87658 -0.36562,-1.52479 0.16149,-0.99512 1.0344,-2.79921 1.65439,-3.4192 0.60247,-0.60246 1.24974,-1.65121 1.10713,-1.79382 -0.30144,-0.30144 -3.4162,2.06726 -4.72711,3.59485 -0.79037,0.92101 -2.48861,2.7235 -3.77388,4.00553 -2.10987,2.10456 -2.43354,2.33096 -3.33243,2.33096 -1.35921,0 -2.011631,-0.7476 -1.978501,-2.26712 0.0258,-1.18303 -0.21328,-1.27982 -0.88061,-0.35649 -0.46284,0.64038 -2.57152,1.82986 -3.24393,1.82986 -0.91887,0 -1.53443,-0.4715 -1.72028,-1.31768 -0.19356,-0.88124 -0.66261,-1.34341 -0.66261,-0.65288 0,0.24305 -0.50548,1.05375 -1.12329,1.80155 -1.59972,1.93632 -1.60219,1.93843 -2.48756,2.13289 -1.9763,0.43407 -1.85002,-2.08975 0.27697,-5.53575 0.35928,-0.58208 0.95168,-1.6082 1.31643,-2.28026 0.36475,-0.67205 0.96789,-1.67093 1.34031,-2.21973 0.61222,-0.90216 0.90195,-1.9823 0.53171,-1.9823 -0.82567,0 -4.88166,3.54367 -4.88166,4.26505 0,0.14448 -0.33454,0.5834 -0.74343,0.97538 -0.40889,0.39198 -1.51022,1.65886 -2.4474,2.81529 -1.91486,2.36284 -3.3259,3.85053 -3.65214,3.85053 -0.50608,0 -1.09452,-1.03579 -1.09452,-1.92662 0,-1.0194 0.46667,-2.30672 0.83621,-2.30672 0.12217,0 0.22212,-0.16037 0.22212,-0.35639 0,-0.19601 0.24974,-0.6425 0.55498,-0.99218 0.30523,-0.34969 0.79536,-1.11205 1.08916,-1.69413 0.2938,-0.58209 0.68565,-1.23693 0.87078,-1.45521 0.46525,-0.54856 0.77834,-2.11667 0.42262,-2.11667 -0.15373,0 -0.48786,0.32742 -0.74252,0.7276 -0.25465,0.40019 -0.53315,0.78714 -0.61887,0.8599 -0.0857,0.0728 -0.53454,0.68891 -0.99737,1.36923 -0.46282,0.68031 -0.9964,1.39469 -1.18574,1.5875 -0.18933,0.19281 -0.71301,0.8896 -1.16373,1.54842 -0.79643,1.16414 -1.84885,2.47207 -2.79337,3.47155 -0.25467,0.26948 -0.46302,0.56614 -0.46302,0.65924 0,0.32627 -0.9316,0.87231 -1.50246,0.88065 -0.31703,0.005 -0.76351,-0.17869 -0.99219,-0.40736 -0.44955,-0.44955 -0.55629,-1.99019 -0.18779,-2.71048 0.36146,-0.70653 0.59559,-1.90094 0.37237,-1.89969 -0.11191,6.3e-4 -0.79879,0.54329 -1.52639,1.20592 -0.72761,0.66262 -1.82525,1.58484 -2.43922,2.04937 -0.61396,0.46454 -1.11998,0.99344 -1.12448,1.17534 -0.005,0.1819 -0.16602,0.33073 -0.35893,0.33073 -0.19292,0 -0.62714,0.2942 -0.96495,0.65378 -0.86889,0.92488 -2.1932,1.31813 -3.22624,0.95802 -1.11934,-0.39021 -1.5251,-1.00858 -1.53506,-2.33941 -0.0112,-1.49562 -0.39359,-1.42555 -1.8605,0.34093 -1.33212,1.60417 -1.75406,1.83436 -2.70186,1.47401 -1.03008,-0.39164 -1.40883,-1.62308 -1.02572,-3.33499 0.31455,-1.40555 0.16893,-3.30859 -0.25317,-3.30859 -0.46098,0 -3.42758,1.40393 -3.42758,1.62208 0,0.1265 -0.1177,0.23 -0.26156,0.23 -0.49495,0 -1.323335,0.91021 -1.604939,1.76348 -0.382422,1.15876 -2.698079,5.11285 -3.405764,5.81551 -0.574864,0.57078 -1.358914,0.57961 -2.06992,0.0233 -0.462763,-0.36207 -0.416199,-2.17492 0.06615,-2.57523 0.218281,-0.18115 0.396875,-0.49841 0.396875,-0.70502 0,-0.2066 0.120825,-0.51945 0.268501,-0.69521 0.797474,-0.94912 2.112749,-2.83108 2.112749,-3.02301 0,-0.12191 0.208359,-0.41467 0.46302,-0.65057 1.482798,-1.37359 2.179655,-2.7822 1.190625,-2.4067 -0.505273,0.19183 -1.275193,0.85624 -3.226276,2.78416 -1.340543,1.32463 -1.738259,1.47039 -2.497406,0.91528 -0.697276,-0.50986 -0.0874,-1.67187 1.079628,-2.05702 0.495207,-0.16343 1.042086,-0.52406 1.215287,-0.8014 0.173201,-0.27734 0.438276,-0.50426 0.589055,-0.50426 0.952635,0 9.387395,-7.7538 9.389145,-8.63113 5.4e-4,-0.27334 0.26688,-0.91371 0.59186,-1.42303 0.76954,-1.20607 1.67101,-2.8561 2.05986,-3.77032 0.17021,-0.40018 0.41688,-0.7276 0.54817,-0.7276 0.13128,0 0.2387,-0.17437 0.2387,-0.38749 0,-1.105989 5.64824,-10.000939 6.92119,-10.899629 0.68314,-0.48228 0.93918,-0.52848 1.6405,-0.29597 1.12189,0.37193 1.37371,0.658 1.85643,2.10879 0.32589,0.97944 0.35127,1.42601 0.12031,2.11666 -0.40399,1.20808 -2.08033,3.39418 -4.51612,5.88948 -1.12946,1.157049 -2.05356,2.173029 -2.05356,2.257739 0,0.0847 -1.24958,1.40022 -2.77685,2.92336 -1.52727,1.52314 -2.77743,2.91818 -2.77813,3.10008 -0.002,0.44545 0.57628,0.41776 1.20493,-0.0577 1.26434,-0.9563 2.76255,-0.23518 2.76255,1.32968 0,0.9115 -0.19087,1.19898 -1.86904,2.8151 -1.02798,0.98996 -1.98048,1.79993 -2.11667,1.79993 -0.38362,0 -0.29272,0.56996 0.17296,1.08453 0.27775,0.30691 0.4703,1.19009 0.56697,2.60052 0.0805,1.17468 0.23202,2.13578 0.33667,2.13578 0.24282,0 2.45395,-1.98263 4.88874,-4.38353 3.16593,-3.12188 4.9159,-4.42255 7.61621,-5.66077 1.41624,-0.64941 2.57499,-1.31944 2.57499,-1.48895 0,-0.16951 0.1786,-0.45642 0.39688,-0.63758 0.33259,-0.27603 0.39687,-0.23384 0.39687,0.26049 0,0.45824 0.10333,0.54721 0.46302,0.39867 1.36496,-0.56365 2.54312,-0.67683 2.93775,-0.2822 0.70237,0.70237 0.0296,3.19329 -1.66218,6.15459 -1.40481,2.45893 -1.92461,3.89058 -1.67954,4.62581 0.15235,0.45703 2.70207,-2.11349 3.23191,-3.25826 0.34645,-0.74856 2.00982,-3.27312 3.77964,-5.73651 0.96114,-1.3378 3.46334,-1.77493 3.88406,-0.67854 0.42648,1.11137 -0.0333,2.16261 -2.47754,5.66482 -0.25587,0.36661 -0.5461,0.92141 -0.64496,1.23288 -0.0989,0.31146 -0.35372,0.71069 -0.56636,0.88717 -0.52699,0.43736 -0.48595,0.78525 0.0926,0.78525 0.65088,0 1.22604,-0.58174 4.5779,-4.63021 1.4603,-1.7638 3.77682,-4.19992 4.63748,-4.87691 1.39493,-1.09725 3.26993,-0.42478 3.26993,1.17278 0,0.78634 -1.92591,4.43361 -3.11226,5.89394 -1.04493,1.28627 -2.06752,3.23415 -1.69786,3.23415 0.29911,0 1.643,-1.47551 2.95203,-3.24115 0.88806,-1.19782 1.27981,-1.52135 1.84217,-1.52135 0.40608,0 0.94464,-0.25685 1.24825,-0.59532 0.78993,-0.88061 1.90984,-1.78593 2.20927,-1.78593 0.14441,0 0.26257,-0.10614 0.26257,-0.23586 0,-0.12972 0.446481,-0.42414 0.992191,-0.65427 1.13766,-0.47976 2.33384,-1.42828 2.09828,-1.66385 -0.19463,-0.19463 -2.741821,0.60489 -3.523171,1.10585 -1.00057,0.64153 -0.9285,0.0587 0.11311,-0.9147 1.411271,-1.31893 1.895921,-1.55172 3.895611,-1.87117 1.84583,-0.29487 3.37869,-0.15 3.79921,0.35907 0.13768,0.16668 0.33079,0.73369 0.42914,1.26002 0.18733,1.00258 0.0568,1.21714 -2.31496,3.80471 -0.40056,0.43702 -0.79554,1.00293 -0.87773,1.25759 -0.0822,0.25466 -0.26046,0.46302 -0.39618,0.46302 -0.13571,0 -0.24675,0.13759 -0.24675,0.30576 0,0.16816 -0.29954,0.69847 -0.66564,1.17845 -0.74538,0.97725 -1.11565,2.33355 -0.70614,2.58664 0.58362,0.36069 1.79222,-0.48269 4.28719,-2.99165 1.43365,-1.44169 2.80688,-2.73333 3.05162,-2.87029 0.24474,-0.13696 1.4133,-1.19893 2.59679,-2.35992 1.18349,-1.16099 2.3304,-2.19263 2.54868,-2.29252 0.21828,-0.0999 0.87312,-0.4727 1.45521,-0.82847 1.78219,-1.08927 2.86369,-1.54056 3.962853,-1.65366 0.57885,-0.0596 1.65041,-0.26616 2.38125,-0.45913 0.73085,-0.19296 1.44787,-0.37708 1.59339,-0.40915 0.47833,-0.10541 1.31679,0.009 1.65848,0.22545 0.43933,0.27885 0.76138,1.56013 0.64042,2.54787 z m -3.95254,0.77252 c -0.25466,0.0757 -0.79044,0.21565 -1.19063,0.3111 -0.40018,0.0954 -0.7276,0.28672 -0.7276,0.42505 0,0.13834 -0.11634,0.17961 -0.25854,0.0917 -0.244643,-0.15119 -2.199933,0.8101 -3.091893,1.52009 -1.36762,1.0886 -3.46291,3.17889 -3.85343,3.84422 -0.43954,0.74887 -0.43672,0.79691 0.0739,1.25903 0.47896,0.43345 0.666,0.44764 1.91219,0.14511 2.62859,-0.63813 2.90977,-0.83929 5.283913,-3.78013 0.5457,-0.67597 0.99218,-1.35782 0.99218,-1.51523 0,-0.15741 0.0915,-0.2862 0.2033,-0.2862 0.26681,0 1.10355,-1.35657 1.11258,-1.80377 0.004,-0.20912 -0.17819,-0.29353 -0.45598,-0.211 z m -7.168893,0.95644 c -0.12297,0 -0.43908,0.23812 -0.70246,0.52916 -0.54354,0.6006 -0.37495,0.68519 0.40046,0.20094 0.53847,-0.33628 0.70137,-0.7301 0.302,-0.7301 z m -14.59101,3.62103 c -0.726461,0.3769 -1.827791,1.25281 -2.447401,1.94647 -1.85136,2.07262 -1.88072,2.11854 -1.55973,2.43953 0.57206,0.57206 2.54205,-0.97757 4.046041,-3.18268 0.46983,-0.68886 0.95048,-1.29217 1.06809,-1.34067 0.11761,-0.0485 0.21384,-0.19164 0.21384,-0.31806 0,-0.12643 -0.59438,0.0785 -1.32084,0.45541 z m -24.052141,-1.61996 c -0.46641,-0.28825 -2.87365,0.71469 -3.83981,1.59981 -0.5408,0.49544 -1.30314,1.07062 -1.69409,1.27817 -2.04625,1.08635 -5.8702,5.41885 -5.8702,6.65086 0,1.90626 1.81959,1.12936 5.80669,-2.47928 4.53053,-4.10047 4.79318,-4.37163 5.3067,-5.47876 0.57946,-1.24929 0.60322,-1.37765 0.29071,-1.5708 z M 21.827686,93.777351 c -0.29104,0.26339 -0.52916,0.63311 -0.52916,0.82161 0,0.18849 -0.16122,0.43793 -0.35825,0.55431 -0.19704,0.11636 -0.50573,0.49225 -0.68597,0.83529 -0.42971,0.81783 0.0173,1.35441 0.67413,0.80926 0.51996,-0.43152 1.38263,-2.2645 1.40973,-2.99534 0.0181,-0.48729 10e-4,-0.48812 -0.51048,-0.0251 z m -2.34847,4.54497 c -0.27301,0.0714 -0.65977,0.4472 -0.85947,0.83512 -0.1997,0.38793 -0.44314,0.76605 -0.54097,0.84026 -0.0978,0.0742 -0.26099,0.490949 -0.36257,0.926059 -0.17716,0.75889 -0.16759,0.76956 0.2352,0.26193 0.23093,-0.29104 0.42366,-0.678 0.42828,-0.8599 0.005,-0.1819 0.19404,-0.330739 0.42091,-0.330739 0.22687,0 0.35231,-0.0974 0.27875,-0.21638 -0.0735,-0.11902 0.098,-0.38343 0.38126,-0.58758 0.65878,-0.47482 0.67088,-1.03934 0.0186,-0.86877 z m -4.86142,11.342369 c -0.97824,0.29626 -2.12425,1.08306 -3.13715,2.15382 -1.12635,1.1907 -1.50404,1.99503 -0.81812,1.7423 2.31316,-0.85227 6.04601,-4.5293 3.95527,-3.89612 z"
         id="path1-2-3-2"
         sodipodi:nodetypes="sssssssscssssssssssccsssssscsssscsssssscsssssssssssssscsscssscssssscsssssssssssssssssssssssssssssssssssssssscssssscssssscssssssssssssssssssssssssssssssssssssccssssssssssssssssssscssssssssssssssscssssssssssssssssscccscscssssssscsssssssssssssssssssscsssssccssssscscsssssss" /><path
         style="fill:#ffff00"
         d="m 209.01231,39.802738 c -0.54323,0.33574 -1.13339,0.63181 -1.31147,0.65795 -0.17807,0.0261 -0.66058,0.21554 -1.07223,0.4209 -0.59355,0.2961 -1.9162,0.35382 -6.39094,0.27889 -3.40892,-0.0571 -5.97121,0.0129 -6.4729,0.17668 -0.45672,0.14914 -1.24712,0.32181 -1.75644,0.38372 -0.50932,0.0619 -1.5809,0.19285 -2.38129,0.29101 -1.5674,0.19221 -1.56739,0.19222 -3.64172,-1.7316 l -0.86364,-0.80097 -4.03116,0.13013 c -2.21713,0.0716 -4.70725,0.13577 -5.5336,0.14266 -0.92299,0.008 -1.6373,0.15421 -1.85209,0.37988 -0.61943,0.65083 -1.13032,1.37754 -1.71199,2.43519 -0.47921,0.87135 -0.68723,1.02248 -1.32292,0.96116 -2.49899,-0.24105 -5.04135,-0.12447 -5.65462,0.25929 -0.79678,0.49859 -2.15786,0.7731 -2.57006,0.51834 -0.83078,-0.51345 -0.89703,-2.5921 -0.11393,-3.57478 0.13371,-0.1678 0.29961,-1.53424 0.36866,-3.03655 0.10371,-2.25635 0.216,-2.8219 0.64555,-3.25145 0.64459,-0.6446 1.30404,-0.43134 1.53705,0.49707 0.0957,0.38147 0.17176,1.71231 0.16893,2.95742 -0.007,3.00683 0.22054,3.31864 2.23634,3.06678 0.82509,-0.10309 1.87294,-0.41425 2.32856,-0.69147 0.45561,-0.27722 1.12605,-0.64889 1.48985,-0.82593 1.29179,-0.62862 5.17279,-3.21423 6.03665,-4.02175 0.4825,-0.45103 1.06223,-1.20829 1.28828,-1.68281 0.57617,-1.20948 1.35786,-1.32516 2.90673,-0.43014 0.70274,0.40608 1.33724,0.80929 1.41,0.89602 0.0728,0.0867 0.68913,0.47932 1.36972,0.87242 0.68058,0.39309 1.45448,0.98606 1.71979,1.31771 0.64631,0.80793 2.80748,2.04322 3.57469,2.04322 0.80204,0 1.33884,-0.84619 1.04349,-1.64491 -0.12286,-0.33223 -0.17914,-0.72851 -0.12508,-0.88062 0.0541,-0.1521 -0.1558,-0.54928 -0.46635,-0.88262 -0.46604,-0.50024 -0.54256,-0.83581 -0.4382,-1.92183 0.0695,-0.72367 0.25048,-1.43982 0.40211,-1.59145 0.63777,-0.63777 4.00035,-1.30037 7.31304,-1.44104 2.97519,-0.12633 3.52998,-0.0829 4.32488,0.33845 0.90043,0.47732 0.90988,0.50067 0.75316,1.86152 l -0.15872,1.37813 0.99322,0.25563 c 0.54626,0.1406 1.94571,0.47148 3.10988,0.73529 1.16416,0.26382 2.27403,0.60018 2.46636,0.74749 1.20771,0.92496 1.3701,1.2207 1.3701,2.49521 0,1.21731 -0.0638,1.34075 -0.98769,1.91176 z m -3.18355,-2.55306 c -0.25851,-0.35373 -1.96946,-0.94477 -3.76626,-1.30103 -2.19732,-0.43568 -6.21867,-0.11508 -7.61967,0.60747 -0.62555,0.32262 -1.20026,0.7505 -1.27714,0.95084 -0.15358,0.40022 0.33245,1.48295 0.63648,1.4179 0.10479,-0.0224 0.48819,0.042 0.85199,0.14321 0.3638,0.10119 1.79255,0.0488 3.175,-0.11643 1.38245,-0.16522 3.57548,-0.35414 4.87341,-0.41981 2.86639,-0.14503 3.70564,-0.48923 3.12619,-1.28215 z m -7.27199,-5.44124 c -4.92348,-0.15457 -7.38927,0.62399 -5.89745,1.86209 0.72591,0.60245 4.91425,-0.16148 6.16203,-1.12392 0.50959,-0.39306 0.3933,-0.71751 -0.26458,-0.73817 z m -16.4516,4.79276 c -0.49904,-0.30842 -0.94552,-0.64555 -0.99219,-0.74919 -0.0467,-0.10363 -0.48356,-0.41045 -0.97086,-0.68182 l -0.88601,-0.4934 -0.7517,0.75798 c -0.41343,0.4169 -0.997,0.98718 -1.29681,1.2673 -0.7608,0.71086 -0.68952,0.87785 0.44708,1.04737 2.14043,0.31924 5.35782,0.0919 5.35782,-0.37856 0,-0.11491 -0.4083,-0.46126 -0.90733,-0.76968 z m 8.63018,-18.93844 c -0.0529,0.43153 -0.57403,1.35545 -1.15819,2.05316 -1.58806,1.89677 -2.25974,2.96632 -2.72681,4.34206 -0.60303,1.77616 -0.44565,1.98961 1.31442,1.78275 1.89148,-0.22231 1.88363,0.0993 -0.036,1.47393 -1.94421,1.39221 -2.87549,1.43464 -3.41001,0.15535 -0.21086,-0.50465 -0.38338,-1.1724 -0.38338,-1.48389 0,-0.48261 -0.1052,-0.53995 -0.71146,-0.38779 -0.39131,0.0982 -1.03477,0.40878 -1.42991,0.69015 -0.39514,0.28136 -0.85228,0.51157 -1.01587,0.51157 -0.16359,0 -1.02153,0.36552 -1.90654,0.81228 -2.00931,1.01429 -3.04739,1.07752 -3.73568,0.22752 -0.37026,-0.45725 -0.47081,-0.87658 -0.36562,-1.52479 0.16149,-0.99512 1.0344,-2.79921 1.65439,-3.4192 0.60247,-0.60246 1.24974,-1.65121 1.10713,-1.79382 -0.30144,-0.30144 -3.4162,2.06726 -4.72711,3.59485 -0.79037,0.92101 -2.48861,2.7235 -3.77388,4.00553 -2.10987,2.10456 -2.43354,2.33096 -3.33243,2.33096 -1.35921,0 -2.01163,-0.7476 -1.9785,-2.26712 0.0258,-1.18303 -0.21328,-1.27982 -0.88061,-0.35649 -0.46284,0.64038 -2.57152,1.82986 -3.24393,1.82986 -0.91887,0 -1.53443,-0.4715 -1.72028,-1.31768 -0.19356,-0.88124 -0.66261,-1.34341 -0.66261,-0.65288 0,0.24305 -0.50548,1.05375 -1.12329,1.80155 -1.59972,1.93632 -1.60219,1.93843 -2.48756,2.13289 -1.9763,0.43407 -1.85002,-2.08975 0.27697,-5.53575 0.35928,-0.58208 0.95168,-1.6082 1.31643,-2.28026 0.36475,-0.67205 0.96789,-1.67093 1.34031,-2.21973 0.61222,-0.90216 0.90195,-1.9823 0.53171,-1.9823 -0.82567,0 -4.88166,3.54367 -4.88166,4.26505 0,0.14448 -0.33454,0.5834 -0.74343,0.97538 -0.40889,0.39198 -1.51022,1.65886 -2.4474,2.81529 -1.91486,2.36284 -3.3259,3.85053 -3.65214,3.85053 -0.50608,0 -1.09452,-1.03579 -1.09452,-1.92662 0,-1.0194 0.46667,-2.30672 0.83621,-2.30672 0.12217,0 0.22212,-0.16037 0.22212,-0.35639 0,-0.19601 0.24974,-0.6425 0.55498,-0.99218 0.30523,-0.34969 0.79536,-1.11205 1.08916,-1.69413 0.2938,-0.58209 0.68565,-1.23693 0.87078,-1.45521 0.46525,-0.54856 0.77834,-2.11667 0.42262,-2.11667 -0.15373,0 -0.48786,0.32742 -0.74252,0.7276 -0.25465,0.40019 -0.53315,0.78714 -0.61887,0.8599 -0.0857,0.0728 -0.53454,0.68891 -0.99737,1.36923 -0.46282,0.68031 -0.9964,1.39469 -1.18574,1.5875 -0.18933,0.19281 -0.71301,0.8896 -1.16373,1.54842 -0.79643,1.16414 -1.84885,2.47207 -2.79337,3.47155 -0.25467,0.26948 -0.46302,0.56614 -0.46302,0.65924 0,0.32627 -0.9316,0.87231 -1.50246,0.88065 -0.31703,0.005 -0.76351,-0.17869 -0.99219,-0.40736 -0.44955,-0.44955 -0.55629,-1.99019 -0.18779,-2.71048 0.36146,-0.70653 0.59559,-1.90094 0.37237,-1.89969 -0.11191,6.3e-4 -0.79879,0.54329 -1.52639,1.20592 -0.72761,0.66262 -1.82525,1.58484 -2.43922,2.04937 -0.61396,0.46454 -1.11998,0.99344 -1.12448,1.17534 -0.005,0.1819 -0.16602,0.33073 -0.35893,0.33073 -0.19292,0 -0.62714,0.2942 -0.96495,0.65378 -0.86889,0.92488 -2.1932,1.31813 -3.22624,0.95802 -1.11934,-0.39021 -1.5251,-1.00858 -1.53506,-2.33941 -0.0112,-1.49562 -0.39359,-1.42555 -1.8605,0.34093 -1.33212,1.60417 -1.75406,1.83436 -2.70186,1.47401 -1.03008,-0.39164 -1.40883,-1.62308 -1.02572,-3.33499 0.31455,-1.40555 0.16893,-3.30859 -0.25317,-3.30859 -0.46098,0 -3.42758,1.40393 -3.42758,1.62208 0,0.1265 -0.1177,0.23 -0.26156,0.23 -0.49495,0 -1.32334,0.91021 -1.60494,1.76348 -0.38243,1.15876 -2.69808,5.11285 -3.40577,5.81551 -0.57486,0.57078 -1.35891,0.57961 -2.06992,0.0233 -0.46276,-0.36207 -0.4162,-2.17492 0.0661,-2.57523 0.21828,-0.18115 0.39688,-0.49841 0.39688,-0.70502 0,-0.2066 0.12082,-0.51945 0.2685,-0.69521 0.79747,-0.94912 2.11275,-2.83108 2.11275,-3.02301 0,-0.12191 0.20836,-0.41467 0.46302,-0.65057 1.4828,-1.37359 2.17965,-2.7822 1.19062,-2.4067 -0.50527,0.19183 -1.27519,0.85624 -3.22627,2.78416 -1.34055,1.32463 -1.73826,1.47039 -2.49741,0.91528 -0.69728,-0.50986 -0.0874,-1.67187 1.07963,-2.05702 0.49521,-0.16343 1.04208,-0.52406 1.21529,-0.8014 0.1732,-0.27734 0.43827,-0.50426 0.58905,-0.50426 0.95264,0 9.3874,-7.7538 9.38915,-8.63113 5.4e-4,-0.27334 0.26688,-0.91371 0.59186,-1.42303 0.76954,-1.20607 1.67101,-2.8561 2.05986,-3.77032 0.17021,-0.40018 0.41688,-0.7276 0.54817,-0.7276 0.13128,0 0.2387,-0.17437 0.2387,-0.38749 0,-1.10598 5.64824,-10.0009298 6.92119,-10.89961981 0.68314,-0.48228 0.93918,-0.52848 1.6405,-0.29597 1.12189,0.37193 1.37371,0.658 1.85643,2.10879001 0.32589,0.97944 0.35127,1.42601 0.12031,2.11666 -0.40399,1.20808 -2.08033,3.3941802 -4.51612,5.8894798 -1.12946,1.15704 -2.05356,2.17302 -2.05356,2.25773 0,0.0847 -1.24958,1.40022 -2.77685,2.92336 -1.52727,1.52314 -2.77743,2.91818 -2.77813,3.10008 -0.002,0.44545 0.57628,0.41776 1.20493,-0.0577 1.26434,-0.9563 2.76255,-0.23518 2.76255,1.32968 0,0.9115 -0.19087,1.19898 -1.86904,2.8151 -1.02798,0.98996 -1.98048,1.79993 -2.11667,1.79993 -0.38362,0 -0.29272,0.56996 0.17296,1.08453 0.27775,0.30691 0.4703,1.19009 0.56697,2.60052 0.0805,1.17468 0.23202,2.13578 0.33667,2.13578 0.24282,0 2.45395,-1.98263 4.88874,-4.38353 3.16593,-3.12188 4.9159,-4.42255 7.61621,-5.66077 1.41624,-0.64941 2.57499,-1.31944 2.57499,-1.48895 0,-0.16951 0.1786,-0.45642 0.39688,-0.63758 0.33259,-0.27603 0.39687,-0.23384 0.39687,0.26049 0,0.45824 0.10333,0.54721 0.46302,0.39867 1.36496,-0.56365 2.54312,-0.67683 2.93775,-0.2822 0.70237,0.70237 0.0296,3.19329 -1.66218,6.15459 -1.40481,2.45893 -1.92461,3.89058 -1.67954,4.62581 0.15235,0.45703 2.70207,-2.11349 3.23191,-3.25826 0.34645,-0.74856 2.00982,-3.27312 3.77964,-5.73651 0.96114,-1.3378 3.46334,-1.77493 3.88406,-0.67854 0.42648,1.11137 -0.0333,2.16261 -2.47754,5.66482 -0.25587,0.36661 -0.5461,0.92141 -0.64496,1.23288 -0.0989,0.31146 -0.35372,0.71069 -0.56636,0.88717 -0.52699,0.43736 -0.48595,0.78525 0.0926,0.78525 0.65088,0 1.22604,-0.58174 4.5779,-4.63021 1.4603,-1.7638 3.77682,-4.19992 4.63748,-4.87691 1.39493,-1.09725 3.26993,-0.42478 3.26993,1.17278 0,0.78634 -1.92591,4.43361 -3.11226,5.89394 -1.04493,1.28627 -2.06752,3.23415 -1.69786,3.23415 0.29911,0 1.643,-1.47551 2.95203,-3.24115 0.88806,-1.19782 1.27981,-1.52135 1.84217,-1.52135 0.40608,0 0.94464,-0.25685 1.24825,-0.59532 0.78993,-0.88061 1.90984,-1.78593 2.20927,-1.78593 0.14441,0 0.26257,-0.10614 0.26257,-0.23586 0,-0.12972 0.44648,-0.42414 0.99219,-0.65427 1.13766,-0.47976 2.33384,-1.42828 2.09828,-1.66385 -0.19463,-0.19463 -2.74182,0.60489 -3.52317,1.10585 -1.00057,0.64153 -0.9285,0.0587 0.11311,-0.9147 1.41127,-1.31893 1.89592,-1.55172 3.89561,-1.87117 1.84583,-0.29487 3.37869,-0.15 3.79921,0.35907 0.13768,0.16668 0.33079,0.73369 0.42914,1.26002 0.18733,1.00258 0.0568,1.21714 -2.31496,3.80471 -0.40056,0.43702 -0.79554,1.00293 -0.87773,1.25759 -0.0822,0.25466 -0.26046,0.46302 -0.39618,0.46302 -0.13571,0 -0.24675,0.13759 -0.24675,0.30576 0,0.16816 -0.29954,0.69847 -0.66564,1.17845 -0.74538,0.97725 -1.11565,2.33355 -0.70614,2.58664 0.58362,0.36069 1.79222,-0.48269 4.28719,-2.99165 1.43365,-1.44169 2.80688,-2.73333 3.05162,-2.87029 0.24474,-0.13696 1.4133,-1.19893 2.59679,-2.35992 1.18349,-1.16099 2.3304,-2.19263 2.54868,-2.29252 0.21828,-0.0999 0.87312,-0.4727 1.45521,-0.82847 1.78219,-1.08927 2.86369,-1.54056 3.96285,-1.65366 0.57885,-0.0596 1.65041,-0.26616 2.38125,-0.45913 0.73085,-0.19296 1.44787,-0.37708 1.59339,-0.40915 0.47833,-0.10541 1.31679,0.009 1.65848,0.22545 0.43933,0.27885 0.76138,1.56013 0.64042,2.54787 z m -3.95254,0.77252 c -0.25466,0.0757 -0.79044,0.21565 -1.19063,0.3111 -0.40018,0.0954 -0.7276,0.28672 -0.7276,0.42505 0,0.13834 -0.11634,0.17961 -0.25854,0.0917 -0.24464,-0.15119 -2.19993,0.8101 -3.09189,1.52009 -1.36762,1.0886 -3.46291,3.17889 -3.85343,3.84422 -0.43954,0.74887 -0.43672,0.79691 0.0739,1.25903 0.47896,0.43345 0.666,0.44764 1.91219,0.14511 2.62859,-0.63813 2.90977,-0.83929 5.28391,-3.78013 0.5457,-0.67597 0.99218,-1.35782 0.99218,-1.51523 0,-0.15741 0.0915,-0.2862 0.2033,-0.2862 0.26681,0 1.10355,-1.35657 1.11258,-1.80377 0.004,-0.20912 -0.17819,-0.29353 -0.45598,-0.211 z m -7.16889,0.95644 c -0.12297,0 -0.43908,0.23812 -0.70246,0.52916 -0.54354,0.6006 -0.37495,0.68519 0.40046,0.20094 0.53847,-0.33628 0.70137,-0.7301 0.302,-0.7301 z m -14.59101,3.62103 c -0.72646,0.3769 -1.82779,1.25281 -2.4474,1.94647 -1.85136,2.07262 -1.88072,2.11854 -1.55973,2.43953 0.57206,0.57206 2.54205,-0.97757 4.04604,-3.18268 0.46983,-0.68886 0.95048,-1.29217 1.06809,-1.34067 0.11761,-0.0485 0.21384,-0.19164 0.21384,-0.31806 0,-0.12643 -0.59438,0.0785 -1.32084,0.45541 z m -24.05214,-1.61996 c -0.46641,-0.28825 -2.87365,0.71469 -3.83981,1.59981 -0.5408,0.49544 -1.30314,1.07062 -1.69409,1.27817 -2.04625,1.08635 -5.8702,5.41885 -5.8702,6.65086 0,1.90626 1.81959,1.12936 5.80669,-2.47928 4.53053,-4.10047 4.79318,-4.37163 5.3067,-5.47876 0.57946,-1.24929 0.60322,-1.37765 0.29071,-1.5708 z M 130.88958,4.9719282 c -0.29104,0.26339 -0.52916,0.63311 -0.52916,0.82161 0,0.18849 -0.16122,0.43793 -0.35825,0.55431 -0.19704,0.11636 -0.50573,0.49225 -0.68597,0.83529 -0.42971,0.8178302 0.0173,1.3544102 0.67413,0.8092602 0.51996,-0.43152 1.38263,-2.2645002 1.40973,-2.9953402 0.0181,-0.48729 0.001,-0.48812 -0.51048,-0.0251 z m -2.34847,4.5449702 c -0.27301,0.0714 -0.65977,0.4472 -0.85947,0.8351196 -0.1997,0.38793 -0.44314,0.76605 -0.54097,0.84026 -0.0978,0.0742 -0.26099,0.49094 -0.36257,0.92605 -0.17716,0.75889 -0.16759,0.76956 0.2352,0.26193 0.23093,-0.29104 0.42366,-0.678 0.42828,-0.8599 0.005,-0.1819 0.19404,-0.33073 0.42091,-0.33073 0.22687,0 0.35231,-0.0974 0.27875,-0.21638 -0.0735,-0.11902 0.098,-0.38343 0.38126,-0.58758 0.65878,-0.4748196 0.67088,-1.0393396 0.0186,-0.8687696 z m -4.86142,11.3423596 c -0.97824,0.29626 -2.12425,1.08306 -3.13715,2.15382 -1.12635,1.1907 -1.50404,1.99503 -0.81812,1.7423 2.31316,-0.85227 6.04601,-4.5293 3.95527,-3.89612 z"
         id="path1-7"
         sodipodi:nodetypes="sssssssscssssssssssccsssssscsssscsssssscsssssssssssssscsscssscssssscsssssssssssssssssssssssssssssssssssssssscssssscssssscssssssssssssssssssssssssssssssssssssccssssssssssssssssssscssssssssssssssscssssssssssssssssscccscscssssssscsssssssssssssssssssscsssssccssssscscsssssss" /><path
         style="fill:#ff00ff"
         d="m 209.01231,84.205447 c -0.54323,0.33574 -1.13339,0.63181 -1.31147,0.65795 -0.17807,0.0261 -0.66058,0.21554 -1.07223,0.4209 -0.59355,0.2961 -1.9162,0.35382 -6.39094,0.27889 -3.40892,-0.0571 -5.97121,0.0129 -6.4729,0.17668 -0.45672,0.14914 -1.24712,0.32181 -1.75644,0.38372 -0.50932,0.0619 -1.5809,0.19285 -2.38129,0.29101 -1.5674,0.19221 -1.56739,0.19222 -3.64172,-1.7316 l -0.86364,-0.80097 -4.03116,0.13013 c -2.21713,0.0716 -4.70725,0.13577 -5.5336,0.14266 -0.92299,0.008 -1.6373,0.15421 -1.85209,0.37988 -0.61943,0.65083 -1.13032,1.37754 -1.71199,2.43519 -0.47921,0.87135 -0.68723,1.02248 -1.32292,0.96116 -2.49899,-0.24105 -5.04135,-0.12447 -5.65462,0.25929 -0.79678,0.49859 -2.15786,0.7731 -2.57006,0.51834 -0.83078,-0.51345 -0.89703,-2.5921 -0.11393,-3.57478 0.13371,-0.1678 0.29961,-1.53424 0.36866,-3.03655 0.10371,-2.25635 0.216,-2.8219 0.64555,-3.25145 0.64459,-0.6446 1.30404,-0.43134 1.53705,0.49707 0.0957,0.38147 0.17176,1.71231 0.16893,2.95742 -0.007,3.00683 0.22054,3.31864 2.23634,3.06678 0.82509,-0.10309 1.87294,-0.41425 2.32856,-0.69147 0.45561,-0.27722 1.12605,-0.64889 1.48985,-0.82593 1.29179,-0.62862 5.17279,-3.21423 6.03665,-4.02175 0.4825,-0.45103 1.06223,-1.20829 1.28828,-1.68281 0.57617,-1.20948 1.35786,-1.32516 2.90673,-0.43014 0.70274,0.40608 1.33724,0.80929 1.41,0.89602 0.0728,0.0867 0.68913,0.47932 1.36972,0.87242 0.68058,0.39309 1.45448,0.98606 1.71979,1.31771 0.64631,0.80793 2.80748,2.04322 3.57469,2.04322 0.80204,0 1.33884,-0.84619 1.04349,-1.64491 -0.12286,-0.33223 -0.17914,-0.72851 -0.12508,-0.88062 0.0541,-0.1521 -0.1558,-0.54928 -0.46635,-0.88262 -0.46604,-0.50024 -0.54256,-0.83581 -0.4382,-1.92183 0.0695,-0.72367 0.25048,-1.43982 0.40211,-1.59145 0.63777,-0.63777 4.00035,-1.30037 7.31304,-1.44104 2.97519,-0.12633 3.52998,-0.0829 4.32488,0.33845 0.90043,0.47732 0.90988,0.50067 0.75316,1.86152 l -0.15872,1.37813 0.99322,0.25563 c 0.54626,0.1406 1.94571,0.47148 3.10988,0.73529 1.16416,0.26382 2.27403,0.60018 2.46636,0.74749 1.20771,0.92496 1.3701,1.2207 1.3701,2.49521 0,1.21731 -0.0638,1.34075 -0.98769,1.91176 z m -3.18355,-2.55306 c -0.25851,-0.35373 -1.96946,-0.94477 -3.76626,-1.30103 -2.19732,-0.43568 -6.21867,-0.11508 -7.61967,0.60747 -0.62555,0.32262 -1.20026,0.7505 -1.27714,0.95084 -0.15358,0.40022 0.33245,1.48295 0.63648,1.4179 0.10479,-0.0224 0.48819,0.042 0.85199,0.14321 0.3638,0.10119 1.79255,0.0488 3.175,-0.11643 1.38245,-0.16522 3.57548,-0.35414 4.87341,-0.41981 2.86639,-0.14503 3.70564,-0.48923 3.12619,-1.28215 z m -7.27199,-5.44124 c -4.92348,-0.15457 -7.38927,0.62399 -5.89745,1.86209 0.72591,0.60245 4.91425,-0.16148 6.16203,-1.12392 0.50959,-0.39306 0.3933,-0.71751 -0.26458,-0.73817 z m -16.4516,4.79276 c -0.49904,-0.30842 -0.94552,-0.64555 -0.99219,-0.74919 -0.0467,-0.10363 -0.48356,-0.41045 -0.97086,-0.68182 l -0.88601,-0.4934 -0.7517,0.75798 c -0.41343,0.4169 -0.997,0.98718 -1.29681,1.2673 -0.7608,0.71086 -0.68952,0.87785 0.44708,1.04737 2.14043,0.31924 5.35782,0.0919 5.35782,-0.37856 0,-0.11491 -0.4083,-0.46126 -0.90733,-0.76968 z m 8.63018,-18.93844 c -0.0529,0.43153 -0.57403,1.35545 -1.15819,2.05316 -1.58806,1.89677 -2.25974,2.96632 -2.72681,4.34206 -0.60303,1.77616 -0.44565,1.98961 1.31442,1.78275 1.89148,-0.22231 1.88363,0.0993 -0.036,1.47393 -1.94421,1.39221 -2.87549,1.43464 -3.41001,0.15535 -0.21086,-0.50465 -0.38338,-1.1724 -0.38338,-1.48389 0,-0.48261 -0.1052,-0.53995 -0.71146,-0.38779 -0.39131,0.0982 -1.03477,0.40878 -1.42991,0.69015 -0.39514,0.28136 -0.85228,0.51157 -1.01587,0.51157 -0.16359,0 -1.02153,0.36552 -1.90654,0.81228 -2.00931,1.01429 -3.04739,1.07752 -3.73568,0.22752 -0.37026,-0.45725 -0.47081,-0.87658 -0.36562,-1.52479 0.16149,-0.99512 1.0344,-2.79921 1.65439,-3.4192 0.60247,-0.60246 1.24974,-1.65121 1.10713,-1.79382 -0.30144,-0.30144 -3.4162,2.06726 -4.72711,3.59485 -0.79037,0.92101 -2.48861,2.7235 -3.77388,4.00553 -2.10987,2.10456 -2.43354,2.33096 -3.33243,2.33096 -1.35921,0 -2.01163,-0.7476 -1.9785,-2.26712 0.0258,-1.18303 -0.21328,-1.27982 -0.88061,-0.35649 -0.46284,0.64038 -2.57152,1.82986 -3.24393,1.82986 -0.91887,0 -1.53443,-0.4715 -1.72028,-1.31768 -0.19356,-0.88124 -0.66261,-1.34341 -0.66261,-0.65288 0,0.24305 -0.50548,1.05375 -1.12329,1.80155 -1.59972,1.93632 -1.60219,1.93843 -2.48756,2.13289 -1.9763,0.43407 -1.85002,-2.08975 0.27697,-5.53575 0.35928,-0.58208 0.95168,-1.6082 1.31643,-2.28026 0.36475,-0.67205 0.96789,-1.67093 1.34031,-2.21973 0.61222,-0.90216 0.90195,-1.9823 0.53171,-1.9823 -0.82567,0 -4.88166,3.54367 -4.88166,4.26505 0,0.14448 -0.33454,0.5834 -0.74343,0.97538 -0.40889,0.39198 -1.51022,1.65886 -2.4474,2.81529 -1.91486,2.36284 -3.3259,3.85053 -3.65214,3.85053 -0.50608,0 -1.09452,-1.03579 -1.09452,-1.92662 0,-1.0194 0.46667,-2.30672 0.83621,-2.30672 0.12217,0 0.22212,-0.16037 0.22212,-0.35639 0,-0.19601 0.24974,-0.6425 0.55498,-0.99218 0.30523,-0.34969 0.79536,-1.11205 1.08916,-1.69413 0.2938,-0.58209 0.68565,-1.23693 0.87078,-1.45521 0.46525,-0.54856 0.77834,-2.11667 0.42262,-2.11667 -0.15373,0 -0.48786,0.32742 -0.74252,0.7276 -0.25465,0.40019 -0.53315,0.78714 -0.61887,0.8599 -0.0857,0.0728 -0.53454,0.68891 -0.99737,1.36923 -0.46282,0.68031 -0.9964,1.39469 -1.18574,1.5875 -0.18933,0.19281 -0.71301,0.8896 -1.16373,1.54842 -0.79643,1.16414 -1.84885,2.47207 -2.79337,3.47155 -0.25467,0.26948 -0.46302,0.56614 -0.46302,0.65924 0,0.32627 -0.9316,0.87231 -1.50246,0.88065 -0.31703,0.005 -0.76351,-0.17869 -0.99219,-0.40736 -0.44955,-0.44955 -0.55629,-1.99019 -0.18779,-2.71048 0.36146,-0.70653 0.59559,-1.90094 0.37237,-1.89969 -0.11191,6.3e-4 -0.79879,0.54329 -1.52639,1.20592 -0.72761,0.66262 -1.82525,1.58484 -2.43922,2.04937 -0.61396,0.46454 -1.11998,0.99344 -1.12448,1.17534 -0.005,0.1819 -0.16602,0.33073 -0.35893,0.33073 -0.19292,0 -0.62714,0.2942 -0.96495,0.65378 -0.86889,0.92488 -2.1932,1.31813 -3.22624,0.95802 -1.11934,-0.39021 -1.5251,-1.00858 -1.53506,-2.33941 -0.0112,-1.49562 -0.39359,-1.42555 -1.8605,0.34093 -1.33212,1.60417 -1.75406,1.83436 -2.70186,1.47401 -1.03008,-0.39164 -1.40883,-1.62308 -1.02572,-3.33499 0.31455,-1.40555 0.16893,-3.30859 -0.25317,-3.30859 -0.46098,0 -3.42758,1.40393 -3.42758,1.62208 0,0.1265 -0.1177,0.23 -0.26156,0.23 -0.49495,0 -1.32334,0.91021 -1.60494,1.76348 -0.38242,1.15876 -2.69808,5.11285 -3.40576,5.81551 -0.57487,0.57078 -1.35892,0.57961 -2.06992,0.0233 -0.46277,-0.36207 -0.4162,-2.17492 0.0661,-2.57523 0.21828,-0.18115 0.39687,-0.49841 0.39687,-0.70502 0,-0.2066 0.12083,-0.51945 0.2685,-0.69521 0.79748,-0.94912 2.11275,-2.83108 2.11275,-3.02301 0,-0.12191 0.20836,-0.41467 0.46302,-0.65057 1.4828,-1.37359 2.17966,-2.7822 1.19063,-2.4067 -0.50528,0.19183 -1.2752,0.85624 -3.22628,2.78416 -1.34054,1.32463 -1.73826,1.47039 -2.49741,0.91528 -0.69727,-0.50986 -0.0874,-1.67187 1.07963,-2.05702 0.49521,-0.16343 1.04209,-0.52406 1.21529,-0.8014 0.1732,-0.27734 0.43827,-0.50426 0.58905,-0.50426 0.95264,0 9.3874,-7.7538 9.38915,-8.63113 5.4e-4,-0.27334 0.26688,-0.91371 0.59186,-1.42303 0.76954,-1.20607 1.67101,-2.8561 2.05986,-3.77032 0.17021,-0.40018 0.41688,-0.7276 0.54817,-0.7276 0.13128,0 0.2387,-0.17437 0.2387,-0.38749 0,-1.10598 5.64824,-10.00093 6.92119,-10.89962 0.68314,-0.48228 0.93918,-0.52848 1.6405,-0.29597 1.12189,0.37193 1.37371,0.658 1.85643,2.10879 0.32589,0.97944 0.35127,1.42601 0.12031,2.11666 -0.40399,1.20808 -2.08033,3.39418 -4.51612,5.88948 -1.12946,1.15704 -2.05356,2.17302 -2.05356,2.25773 0,0.0847 -1.24958,1.40022 -2.77685,2.92336 -1.52727,1.52314 -2.77743,2.91818 -2.77813,3.10008 -0.002,0.44545 0.57628,0.41776 1.20493,-0.0577 1.26434,-0.9563 2.76255,-0.23518 2.76255,1.32968 0,0.9115 -0.19087,1.19898 -1.86904,2.8151 -1.02798,0.98996 -1.98048,1.79993 -2.11667,1.79993 -0.38362,0 -0.29272,0.56996 0.17296,1.08453 0.27775,0.30691 0.4703,1.19009 0.56697,2.60052 0.0805,1.17468 0.23202,2.13578 0.33667,2.13578 0.24282,0 2.45395,-1.98263 4.88874,-4.38353 3.16593,-3.12188 4.9159,-4.42255 7.61621,-5.66077 1.41624,-0.64941 2.57499,-1.31944 2.57499,-1.48895 0,-0.16951 0.1786,-0.45642 0.39688,-0.63758 0.33259,-0.27603 0.39687,-0.23384 0.39687,0.26049 0,0.45824 0.10333,0.54721 0.46302,0.39867 1.36496,-0.56365 2.54312,-0.67683 2.93775,-0.2822 0.70237,0.70237 0.0296,3.19329 -1.66218,6.15459 -1.40481,2.45893 -1.92461,3.89058 -1.67954,4.62581 0.15235,0.45703 2.70207,-2.11349 3.23191,-3.25826 0.34645,-0.74856 2.00982,-3.27312 3.77964,-5.73651 0.96114,-1.3378 3.46334,-1.77493 3.88406,-0.67854 0.42648,1.11137 -0.0333,2.16261 -2.47754,5.66482 -0.25587,0.36661 -0.5461,0.92141 -0.64496,1.23288 -0.0989,0.31146 -0.35372,0.71069 -0.56636,0.88717 -0.52699,0.43736 -0.48595,0.78525 0.0926,0.78525 0.65088,0 1.22604,-0.58174 4.5779,-4.63021 1.4603,-1.7638 3.77682,-4.19992 4.63748,-4.87691 1.39493,-1.09725 3.26993,-0.42478 3.26993,1.17278 0,0.78634 -1.92591,4.43361 -3.11226,5.89394 -1.04493,1.28627 -2.06752,3.23415 -1.69786,3.23415 0.29911,0 1.643,-1.47551 2.95203,-3.24115 0.88806,-1.19782 1.27981,-1.52135 1.84217,-1.52135 0.40608,0 0.94464,-0.25685 1.24825,-0.59532 0.78993,-0.88061 1.90984,-1.78593 2.20927,-1.78593 0.14441,0 0.26257,-0.10614 0.26257,-0.23586 0,-0.12972 0.44648,-0.42414 0.99219,-0.65427 1.13766,-0.47976 2.33384,-1.42828 2.09828,-1.66385 -0.19463,-0.19463 -2.74182,0.60489 -3.52317,1.10585 -1.00057,0.64153 -0.9285,0.0587 0.11311,-0.9147 1.41127,-1.31893 1.89592,-1.55172 3.89561,-1.87117 1.84583,-0.29487 3.37869,-0.15 3.79921,0.35907 0.13768,0.16668 0.33079,0.73369 0.42914,1.26002 0.18733,1.00258 0.0568,1.21714 -2.31496,3.80471 -0.40056,0.43702 -0.79554,1.00293 -0.87773,1.25759 -0.0822,0.25466 -0.26046,0.46302 -0.39618,0.46302 -0.13571,0 -0.24675,0.13759 -0.24675,0.30576 0,0.16816 -0.29954,0.69847 -0.66564,1.17845 -0.74538,0.97725 -1.11565,2.33355 -0.70614,2.58664 0.58362,0.36069 1.79222,-0.48269 4.28719,-2.99165 1.43365,-1.44169 2.80688,-2.73333 3.05162,-2.87029 0.24474,-0.13696 1.4133,-1.19893 2.59679,-2.35992 1.18349,-1.16099 2.3304,-2.19263 2.54868,-2.29252 0.21828,-0.0999 0.87312,-0.4727 1.45521,-0.82847 1.78219,-1.08927 2.86369,-1.54056 3.96285,-1.65366 0.57885,-0.0596 1.65041,-0.26616 2.38125,-0.45913 0.73085,-0.19296 1.44787,-0.37708 1.59339,-0.40915 0.47833,-0.10541 1.31679,0.009 1.65848,0.22545 0.43933,0.27885 0.76138,1.56013 0.64042,2.54787 z m -3.95254,0.77252 c -0.25466,0.0757 -0.79044,0.21565 -1.19063,0.3111 -0.40018,0.0954 -0.7276,0.28672 -0.7276,0.42505 0,0.13834 -0.11634,0.17961 -0.25854,0.0917 -0.24464,-0.15119 -2.19993,0.8101 -3.09189,1.52009 -1.36762,1.0886 -3.46291,3.17889 -3.85343,3.84422 -0.43954,0.74887 -0.43672,0.79691 0.0739,1.25903 0.47896,0.43345 0.666,0.44764 1.91219,0.14511 2.62859,-0.63813 2.90977,-0.83929 5.28391,-3.78013 0.5457,-0.67597 0.99218,-1.35782 0.99218,-1.51523 0,-0.15741 0.0915,-0.2862 0.2033,-0.2862 0.26681,0 1.10355,-1.35657 1.11258,-1.80377 0.004,-0.20912 -0.17819,-0.29353 -0.45598,-0.211 z m -7.16889,0.95644 c -0.12297,0 -0.43908,0.23812 -0.70246,0.52916 -0.54354,0.6006 -0.37495,0.68519 0.40046,0.20094 0.53847,-0.33628 0.70137,-0.7301 0.302,-0.7301 z m -14.59101,3.62103 c -0.72646,0.3769 -1.82779,1.25281 -2.4474,1.94647 -1.85136,2.07262 -1.88072,2.11854 -1.55973,2.43953 0.57206,0.57206 2.54205,-0.97757 4.04604,-3.18268 0.46983,-0.68886 0.95048,-1.29217 1.06809,-1.34067 0.11761,-0.0485 0.21384,-0.19164 0.21384,-0.31806 0,-0.12643 -0.59438,0.0785 -1.32084,0.45541 z m -24.05214,-1.61996 c -0.46641,-0.28825 -2.87365,0.71469 -3.83981,1.59981 -0.5408,0.49544 -1.30314,1.07062 -1.69409,1.27817 -2.04625,1.08635 -5.8702,5.41885 -5.8702,6.65086 0,1.90626 1.81959,1.12936 5.80669,-2.47928 4.53053,-4.10047 4.79318,-4.37163 5.3067,-5.47876 0.57946,-1.24929 0.60322,-1.37765 0.29071,-1.5708 z m -10.08119,-16.42086 c -0.29104,0.26339 -0.52916,0.63311 -0.52916,0.82161 0,0.18849 -0.16122,0.43793 -0.35825,0.55431 -0.19704,0.11636 -0.50573,0.49225 -0.68597,0.83529 -0.42971,0.81783 0.0173,1.35441 0.67413,0.80926 0.51996,-0.43152 1.38263,-2.2645 1.40973,-2.99534 0.0181,-0.48729 0.001,-0.48812 -0.51048,-0.0251 z m -2.34847,4.54497 c -0.27301,0.0714 -0.65977,0.4472 -0.85947,0.83512 -0.1997,0.38793 -0.44314,0.76605 -0.54097,0.84026 -0.0978,0.0742 -0.26099,0.49094 -0.36257,0.92605 -0.17716,0.75889 -0.16759,0.76956 0.2352,0.26193 0.23093,-0.29104 0.42366,-0.678 0.42828,-0.8599 0.005,-0.1819 0.19404,-0.33073 0.42091,-0.33073 0.22687,0 0.35231,-0.0974 0.27875,-0.21638 -0.0735,-0.11902 0.098,-0.38343 0.38126,-0.58758 0.65878,-0.47482 0.67088,-1.03934 0.0186,-0.86877 z m -4.86142,11.34236 c -0.97824,0.29626 -2.12425,1.08306 -3.13715,2.15382 -1.12635,1.1907 -1.50404,1.99503 -0.81812,1.7423 2.31316,-0.85227 6.04601,-4.5293 3.95527,-3.89612 z"
         id="path1-2-9"
         sodipodi:nodetypes="sssssssscssssssssssccsssssscsssscsssssscsssssssssssssscsscssscssssscsssssssssssssssssssssssssssssssssssssssscssssscssssscssssssssssssssssssssssssssssssssssssccssssssssssssssssssscssssssssssssssscssssssssssssssssscccscscssssssscsssssssssssssssssssscsssssccssssscscsssssss" /><path
         style="fill:#00ffff"
         d="m 209.01231,128.60816 c -0.54323,0.33574 -1.13339,0.63181 -1.31147,0.65795 -0.17807,0.0261 -0.66058,0.21554 -1.07223,0.4209 -0.59355,0.2961 -1.9162,0.35382 -6.39094,0.27889 -3.40892,-0.0571 -5.97121,0.0129 -6.4729,0.17668 -0.45672,0.14914 -1.24712,0.32181 -1.75644,0.38372 -0.50932,0.0619 -1.5809,0.19285 -2.38129,0.29101 -1.5674,0.19221 -1.56739,0.19222 -3.64172,-1.7316 l -0.86364,-0.80097 -4.03116,0.13013 c -2.21713,0.0716 -4.70725,0.13577 -5.5336,0.14266 -0.92299,0.008 -1.6373,0.15421 -1.85209,0.37988 -0.61943,0.65083 -1.13032,1.37754 -1.71199,2.43519 -0.47921,0.87135 -0.68723,1.02248 -1.32292,0.96116 -2.49899,-0.24105 -5.04135,-0.12447 -5.65462,0.25929 -0.79678,0.49859 -2.15786,0.7731 -2.57006,0.51834 -0.83078,-0.51345 -0.89703,-2.5921 -0.11393,-3.57478 0.13371,-0.1678 0.29961,-1.53424 0.36866,-3.03655 0.10371,-2.25635 0.216,-2.8219 0.64555,-3.25145 0.64459,-0.6446 1.30404,-0.43134 1.53705,0.49707 0.0957,0.38147 0.17176,1.71231 0.16893,2.95742 -0.007,3.00683 0.22054,3.31864 2.23634,3.06678 0.82509,-0.10309 1.87294,-0.41425 2.32856,-0.69147 0.45561,-0.27722 1.12605,-0.64889 1.48985,-0.82593 1.29179,-0.62862 5.17279,-3.21423 6.03665,-4.02175 0.4825,-0.45103 1.06223,-1.20829 1.28828,-1.68281 0.57617,-1.20948 1.35786,-1.32516 2.90673,-0.43014 0.70274,0.40608 1.33724,0.80929 1.41,0.89602 0.0728,0.0867 0.68913,0.47932 1.36972,0.87242 0.68058,0.39309 1.45448,0.98606 1.71979,1.31771 0.64631,0.80793 2.80748,2.04322 3.57469,2.04322 0.80204,0 1.33884,-0.84619 1.04349,-1.64491 -0.12286,-0.33223 -0.17914,-0.72851 -0.12508,-0.88062 0.0541,-0.1521 -0.1558,-0.54928 -0.46635,-0.88262 -0.46604,-0.50024 -0.54256,-0.83581 -0.4382,-1.92183 0.0695,-0.72367 0.25048,-1.43982 0.40211,-1.59145 0.63777,-0.63777 4.00035,-1.30037 7.31304,-1.44104 2.97519,-0.12633 3.52998,-0.0829 4.32488,0.33845 0.90043,0.47732 0.90988,0.50067 0.75316,1.86152 l -0.15872,1.37813 0.99322,0.25563 c 0.54626,0.1406 1.94571,0.47148 3.10988,0.73529 1.16416,0.26382 2.27403,0.60018 2.46636,0.74749 1.20771,0.92496 1.3701,1.2207 1.3701,2.49521 0,1.21731 -0.0638,1.34075 -0.98769,1.91176 z m -3.18355,-2.55306 c -0.25851,-0.35373 -1.96946,-0.94477 -3.76626,-1.30103 -2.19732,-0.43568 -6.21867,-0.11508 -7.61967,0.60747 -0.62555,0.32262 -1.20026,0.7505 -1.27714,0.95084 -0.15358,0.40022 0.33245,1.48295 0.63648,1.4179 0.10479,-0.0224 0.48819,0.042 0.85199,0.14321 0.3638,0.10119 1.79255,0.0488 3.175,-0.11643 1.38245,-0.16522 3.57548,-0.35414 4.87341,-0.41981 2.86639,-0.14503 3.70564,-0.48923 3.12619,-1.28215 z m -7.27199,-5.44124 c -4.92348,-0.15457 -7.38927,0.62399 -5.89745,1.86209 0.72591,0.60245 4.91425,-0.16148 6.16203,-1.12392 0.50959,-0.39306 0.3933,-0.71751 -0.26458,-0.73817 z m -16.4516,4.79276 c -0.49904,-0.30842 -0.94552,-0.64555 -0.99219,-0.74919 -0.0467,-0.10363 -0.48356,-0.41045 -0.97086,-0.68182 l -0.88601,-0.4934 -0.7517,0.75798 c -0.41343,0.4169 -0.997,0.98718 -1.29681,1.2673 -0.7608,0.71086 -0.68952,0.87785 0.44708,1.04737 2.14043,0.31924 5.35782,0.0919 5.35782,-0.37856 0,-0.11491 -0.4083,-0.46126 -0.90733,-0.76968 z m 8.63018,-18.93844 c -0.0529,0.43153 -0.57403,1.35545 -1.15819,2.05316 -1.58806,1.89677 -2.25974,2.96632 -2.72681,4.34206 -0.60303,1.77616 -0.44565,1.98961 1.31442,1.78275 1.89148,-0.22231 1.88363,0.0993 -0.036,1.47393 -1.94421,1.39221 -2.87549,1.43464 -3.41001,0.15535 -0.21086,-0.50465 -0.38338,-1.1724 -0.38338,-1.48389 0,-0.48261 -0.1052,-0.53995 -0.71146,-0.38779 -0.39131,0.0982 -1.03477,0.40878 -1.42991,0.69015 -0.39514,0.28136 -0.85228,0.51157 -1.01587,0.51157 -0.16359,0 -1.02153,0.36552 -1.90654,0.81228 -2.00931,1.01429 -3.04739,1.07752 -3.73568,0.22752 -0.37026,-0.45725 -0.47081,-0.87658 -0.36562,-1.52479 0.16149,-0.99512 1.0344,-2.79921 1.65439,-3.4192 0.60247,-0.60246 1.24974,-1.65121 1.10713,-1.79382 -0.30144,-0.30144 -3.4162,2.06726 -4.72711,3.59485 -0.79037,0.92101 -2.48861,2.7235 -3.77388,4.00553 -2.10987,2.10456 -2.43354,2.33096 -3.33243,2.33096 -1.35921,0 -2.01163,-0.7476 -1.9785,-2.26712 0.0258,-1.18303 -0.21328,-1.27982 -0.88061,-0.35649 -0.46284,0.64038 -2.57152,1.82986 -3.24393,1.82986 -0.91887,0 -1.53443,-0.4715 -1.72028,-1.31768 -0.19356,-0.88124 -0.66261,-1.34341 -0.66261,-0.65288 0,0.24305 -0.50548,1.05375 -1.12329,1.80155 -1.59972,1.93632 -1.60219,1.93843 -2.48756,2.13289 -1.9763,0.43407 -1.85002,-2.08975 0.27697,-5.53575 0.35928,-0.58208 0.95168,-1.6082 1.31643,-2.28026 0.36475,-0.67205 0.96789,-1.67093 1.34031,-2.21973 0.61222,-0.90216 0.90195,-1.9823 0.53171,-1.9823 -0.82567,0 -4.88166,3.54367 -4.88166,4.26505 0,0.14448 -0.33454,0.5834 -0.74343,0.97538 -0.40889,0.39198 -1.51022,1.65886 -2.4474,2.81529 -1.91486,2.36284 -3.3259,3.85053 -3.65214,3.85053 -0.50608,0 -1.09452,-1.03579 -1.09452,-1.92662 0,-1.0194 0.46667,-2.30672 0.83621,-2.30672 0.12217,0 0.22212,-0.16037 0.22212,-0.35639 0,-0.19601 0.24974,-0.6425 0.55498,-0.99218 0.30523,-0.34969 0.79536,-1.11205 1.08916,-1.69413 0.2938,-0.58209 0.68565,-1.23693 0.87078,-1.45521 0.46525,-0.54856 0.77834,-2.11667 0.42262,-2.11667 -0.15373,0 -0.48786,0.32742 -0.74252,0.7276 -0.25465,0.40019 -0.53315,0.78714 -0.61887,0.8599 -0.0857,0.0728 -0.53454,0.68891 -0.99737,1.36923 -0.46282,0.68031 -0.9964,1.39469 -1.18574,1.5875 -0.18933,0.19281 -0.71301,0.8896 -1.16373,1.54842 -0.79643,1.16414 -1.84885,2.47207 -2.79337,3.47155 -0.25467,0.26948 -0.46302,0.56614 -0.46302,0.65924 0,0.32627 -0.9316,0.87231 -1.50246,0.88065 -0.31703,0.005 -0.76351,-0.17869 -0.99219,-0.40736 -0.44955,-0.44955 -0.55629,-1.99019 -0.18779,-2.71048 0.36146,-0.70653 0.59559,-1.90094 0.37237,-1.89969 -0.11191,6.3e-4 -0.79879,0.54329 -1.52639,1.20592 -0.72761,0.66262 -1.82525,1.58484 -2.43922,2.04937 -0.61396,0.46454 -1.11998,0.99344 -1.12448,1.17534 -0.005,0.1819 -0.16602,0.33073 -0.35893,0.33073 -0.19292,0 -0.62714,0.2942 -0.96495,0.65378 -0.86889,0.92488 -2.1932,1.31813 -3.22624,0.95802 -1.11934,-0.39021 -1.5251,-1.00858 -1.53506,-2.33941 -0.0112,-1.49562 -0.39359,-1.42555 -1.8605,0.34093 -1.33212,1.60417 -1.75406,1.83436 -2.70186,1.47401 -1.03008,-0.39164 -1.40883,-1.62308 -1.02572,-3.33499 0.31455,-1.40555 0.16893,-3.30859 -0.25317,-3.30859 -0.46098,0 -3.42758,1.40393 -3.42758,1.62208 0,0.1265 -0.1177,0.23 -0.26156,0.23 -0.49495,0 -1.32334,0.91021 -1.60494,1.76348 -0.38243,1.15876 -2.69808,5.11285 -3.40577,5.81551 -0.57486,0.57078 -1.35891,0.57961 -2.06992,0.0233 -0.46276,-0.36207 -0.4162,-2.17492 0.0661,-2.57523 0.21828,-0.18115 0.39688,-0.49841 0.39688,-0.70502 0,-0.2066 0.12082,-0.51945 0.2685,-0.69521 0.79747,-0.94912 2.11275,-2.83108 2.11275,-3.02301 0,-0.12191 0.20836,-0.41467 0.46302,-0.65057 1.4828,-1.37359 2.17965,-2.7822 1.19062,-2.4067 -0.50527,0.19183 -1.27519,0.85624 -3.22627,2.78416 -1.34055,1.32463 -1.73826,1.47039 -2.49741,0.91528 -0.69728,-0.50986 -0.0874,-1.67187 1.07963,-2.05702 0.49521,-0.16343 1.04208,-0.52406 1.21529,-0.8014 0.1732,-0.27734 0.43827,-0.50426 0.58905,-0.50426 0.95264,0 9.3874,-7.7538 9.38915,-8.63113 5.4e-4,-0.27334 0.26688,-0.91371 0.59186,-1.42303 0.76954,-1.20607 1.67101,-2.8561 2.05986,-3.77032 0.17021,-0.40018 0.41688,-0.7276 0.54817,-0.7276 0.13128,0 0.2387,-0.17437 0.2387,-0.38749 0,-1.105984 5.64824,-10.000934 6.92119,-10.899624 0.68314,-0.48228 0.93918,-0.52848 1.6405,-0.29597 1.12189,0.37193 1.37371,0.658 1.85643,2.10879 0.32589,0.97944 0.35127,1.42601 0.12031,2.11666 -0.40399,1.20808 -2.08033,3.39418 -4.51612,5.88948 -1.12946,1.157044 -2.05356,2.173024 -2.05356,2.257734 0,0.0847 -1.24958,1.40022 -2.77685,2.92336 -1.52727,1.52314 -2.77743,2.91818 -2.77813,3.10008 -0.002,0.44545 0.57628,0.41776 1.20493,-0.0577 1.26434,-0.9563 2.76255,-0.23518 2.76255,1.32968 0,0.9115 -0.19087,1.19898 -1.86904,2.8151 -1.02798,0.98996 -1.98048,1.79993 -2.11667,1.79993 -0.38362,0 -0.29272,0.56996 0.17296,1.08453 0.27775,0.30691 0.4703,1.19009 0.56697,2.60052 0.0805,1.17468 0.23202,2.13578 0.33667,2.13578 0.24282,0 2.45395,-1.98263 4.88874,-4.38353 3.16593,-3.12188 4.9159,-4.42255 7.61621,-5.66077 1.41624,-0.64941 2.57499,-1.31944 2.57499,-1.48895 0,-0.16951 0.1786,-0.45642 0.39688,-0.63758 0.33259,-0.27603 0.39687,-0.23384 0.39687,0.26049 0,0.45824 0.10333,0.54721 0.46302,0.39867 1.36496,-0.56365 2.54312,-0.67683 2.93775,-0.2822 0.70237,0.70237 0.0296,3.19329 -1.66218,6.15459 -1.40481,2.45893 -1.92461,3.89058 -1.67954,4.62581 0.15235,0.45703 2.70207,-2.11349 3.23191,-3.25826 0.34645,-0.74856 2.00982,-3.27312 3.77964,-5.73651 0.96114,-1.3378 3.46334,-1.77493 3.88406,-0.67854 0.42648,1.11137 -0.0333,2.16261 -2.47754,5.66482 -0.25587,0.36661 -0.5461,0.92141 -0.64496,1.23288 -0.0989,0.31146 -0.35372,0.71069 -0.56636,0.88717 -0.52699,0.43736 -0.48595,0.78525 0.0926,0.78525 0.65088,0 1.22604,-0.58174 4.5779,-4.63021 1.4603,-1.7638 3.77682,-4.19992 4.63748,-4.87691 1.39493,-1.09725 3.26993,-0.42478 3.26993,1.17278 0,0.78634 -1.92591,4.43361 -3.11226,5.89394 -1.04493,1.28627 -2.06752,3.23415 -1.69786,3.23415 0.29911,0 1.643,-1.47551 2.95203,-3.24115 0.88806,-1.19782 1.27981,-1.52135 1.84217,-1.52135 0.40608,0 0.94464,-0.25685 1.24825,-0.59532 0.78993,-0.88061 1.90984,-1.78593 2.20927,-1.78593 0.14441,0 0.26257,-0.10614 0.26257,-0.23586 0,-0.12972 0.44648,-0.42414 0.99219,-0.65427 1.13766,-0.47976 2.33384,-1.42828 2.09828,-1.66385 -0.19463,-0.19463 -2.74182,0.60489 -3.52317,1.10585 -1.00057,0.64153 -0.9285,0.0587 0.11311,-0.9147 1.41127,-1.31893 1.89592,-1.55172 3.89561,-1.87117 1.84583,-0.29487 3.37869,-0.15 3.79921,0.35907 0.13768,0.16668 0.33079,0.73369 0.42914,1.26002 0.18733,1.00258 0.0568,1.21714 -2.31496,3.80471 -0.40056,0.43702 -0.79554,1.00293 -0.87773,1.25759 -0.0822,0.25466 -0.26046,0.46302 -0.39618,0.46302 -0.13571,0 -0.24675,0.13759 -0.24675,0.30576 0,0.16816 -0.29954,0.69847 -0.66564,1.17845 -0.74538,0.97725 -1.11565,2.33355 -0.70614,2.58664 0.58362,0.36069 1.79222,-0.48269 4.28719,-2.99165 1.43365,-1.44169 2.80688,-2.73333 3.05162,-2.87029 0.24474,-0.13696 1.4133,-1.19893 2.59679,-2.35992 1.18349,-1.16099 2.3304,-2.19263 2.54868,-2.29252 0.21828,-0.0999 0.87312,-0.4727 1.45521,-0.82847 1.78219,-1.08927 2.86369,-1.54056 3.96285,-1.65366 0.57885,-0.0596 1.65041,-0.26616 2.38125,-0.45913 0.73085,-0.19296 1.44787,-0.37708 1.59339,-0.40915 0.47833,-0.10541 1.31679,0.009 1.65848,0.22545 0.43933,0.27885 0.76138,1.56013 0.64042,2.54787 z m -3.95254,0.77252 c -0.25466,0.0757 -0.79044,0.21565 -1.19063,0.3111 -0.40018,0.0954 -0.7276,0.28672 -0.7276,0.42505 0,0.13834 -0.11634,0.17961 -0.25854,0.0917 -0.24464,-0.15119 -2.19993,0.8101 -3.09189,1.52009 -1.36762,1.0886 -3.46291,3.17889 -3.85343,3.84422 -0.43954,0.74887 -0.43672,0.79691 0.0739,1.25903 0.47896,0.43345 0.666,0.44764 1.91219,0.14511 2.62859,-0.63813 2.90977,-0.83929 5.28391,-3.78013 0.5457,-0.67597 0.99218,-1.35782 0.99218,-1.51523 0,-0.15741 0.0915,-0.2862 0.2033,-0.2862 0.26681,0 1.10355,-1.35657 1.11258,-1.80377 0.004,-0.20912 -0.17819,-0.29353 -0.45598,-0.211 z m -7.16889,0.95644 c -0.12297,0 -0.43908,0.23812 -0.70246,0.52916 -0.54354,0.6006 -0.37495,0.68519 0.40046,0.20094 0.53847,-0.33628 0.70137,-0.7301 0.302,-0.7301 z m -14.59101,3.62103 c -0.72646,0.3769 -1.82779,1.25281 -2.4474,1.94647 -1.85136,2.07262 -1.88072,2.11854 -1.55973,2.43953 0.57206,0.57206 2.54205,-0.97757 4.04604,-3.18268 0.46983,-0.68886 0.95048,-1.29217 1.06809,-1.34067 0.11761,-0.0485 0.21384,-0.19164 0.21384,-0.31806 0,-0.12643 -0.59438,0.0785 -1.32084,0.45541 z m -24.05214,-1.61996 c -0.46641,-0.28825 -2.87365,0.71469 -3.83981,1.59981 -0.5408,0.49544 -1.30314,1.07062 -1.69409,1.27817 -2.04625,1.08635 -5.8702,5.41885 -5.8702,6.65086 0,1.90626 1.81959,1.12936 5.80669,-2.47928 4.53053,-4.10047 4.79318,-4.37163 5.3067,-5.47876 0.57946,-1.24929 0.60322,-1.37765 0.29071,-1.5708 z M 130.88958,93.777346 c -0.29104,0.26339 -0.52916,0.63311 -0.52916,0.82161 0,0.18849 -0.16122,0.43793 -0.35825,0.55431 -0.19704,0.11636 -0.50573,0.49225 -0.68597,0.83529 -0.42971,0.81783 0.0173,1.35441 0.67413,0.80926 0.51996,-0.43152 1.38263,-2.2645 1.40973,-2.99534 0.0181,-0.48729 0.001,-0.48812 -0.51048,-0.0251 z m -2.34847,4.54497 c -0.27301,0.0714 -0.65977,0.4472 -0.85947,0.83512 -0.1997,0.38793 -0.44314,0.76605 -0.54097,0.84026 -0.0978,0.0742 -0.26099,0.490944 -0.36257,0.926054 -0.17716,0.75889 -0.16759,0.76956 0.2352,0.26193 0.23093,-0.29104 0.42366,-0.678 0.42828,-0.8599 0.005,-0.1819 0.19404,-0.330734 0.42091,-0.330734 0.22687,0 0.35231,-0.0974 0.27875,-0.21638 -0.0735,-0.11902 0.098,-0.38343 0.38126,-0.58758 0.65878,-0.47482 0.67088,-1.03934 0.0186,-0.86877 z m -4.86142,11.342364 c -0.97824,0.29626 -2.12425,1.08306 -3.13715,2.15382 -1.12635,1.1907 -1.50404,1.99503 -0.81812,1.7423 2.31316,-0.85227 6.04601,-4.5293 3.95527,-3.89612 z"
         id="path1-2-3-20"
         sodipodi:nodetypes="sssssssscssssssssssccsssssscsssscsssssscsssssssssssssscsscssscssssscsssssssssssssssssssssssssssssssssssssssscssssscssssscssssssssssssssssssssssssssssssssssssccssssssssssssssssssscssssssssssssssscssssssssssssssssscccscscssssssscsssssssssssssssssssscsssssccssssscscsssssss" /><path
         style="fill:#000000"
         d="m 209.01231,173.01088 c -0.54323,0.33574 -1.13339,0.63181 -1.31147,0.65795 -0.17807,0.0261 -0.66058,0.21554 -1.07223,0.4209 -0.59355,0.2961 -1.9162,0.35382 -6.39094,0.27889 -3.40892,-0.0571 -5.97121,0.0129 -6.4729,0.17668 -0.45672,0.14914 -1.24712,0.32181 -1.75644,0.38372 -0.50932,0.0619 -1.5809,0.19285 -2.38129,0.29101 -1.5674,0.19221 -1.56739,0.19222 -3.64172,-1.7316 l -0.86364,-0.80097 -4.03116,0.13013 c -2.21713,0.0716 -4.70725,0.13577 -5.5336,0.14266 -0.92299,0.008 -1.6373,0.15421 -1.85209,0.37988 -0.61943,0.65083 -1.13032,1.37754 -1.71199,2.43519 -0.47921,0.87135 -0.68723,1.02248 -1.32292,0.96116 -2.49899,-0.24105 -5.04135,-0.12447 -5.65462,0.25929 -0.79678,0.49859 -2.15786,0.7731 -2.57006,0.51834 -0.83078,-0.51345 -0.89703,-2.5921 -0.11393,-3.57478 0.13371,-0.1678 0.29961,-1.53424 0.36866,-3.03655 0.10371,-2.25635 0.216,-2.8219 0.64555,-3.25145 0.64459,-0.6446 1.30404,-0.43134 1.53705,0.49707 0.0957,0.38147 0.17176,1.71231 0.16893,2.95742 -0.007,3.00683 0.22054,3.31864 2.23634,3.06678 0.82509,-0.10309 1.87294,-0.41425 2.32856,-0.69147 0.45561,-0.27722 1.12605,-0.64889 1.48985,-0.82593 1.29179,-0.62862 5.17279,-3.21423 6.03665,-4.02175 0.4825,-0.45103 1.06223,-1.20829 1.28828,-1.68281 0.57617,-1.20948 1.35786,-1.32516 2.90673,-0.43014 0.70274,0.40608 1.33724,0.80929 1.41,0.89602 0.0728,0.0867 0.68913,0.47932 1.36972,0.87242 0.68058,0.39309 1.45448,0.98606 1.71979,1.31771 0.64631,0.80793 2.80748,2.04322 3.57469,2.04322 0.80204,0 1.33884,-0.84619 1.04349,-1.64491 -0.12286,-0.33223 -0.17914,-0.72851 -0.12508,-0.88062 0.0541,-0.1521 -0.1558,-0.54928 -0.46635,-0.88262 -0.46604,-0.50024 -0.54256,-0.83581 -0.4382,-1.92183 0.0695,-0.72367 0.25048,-1.43982 0.40211,-1.59145 0.63777,-0.63777 4.00035,-1.30037 7.31304,-1.44104 2.97519,-0.12633 3.52998,-0.0829 4.32488,0.33845 0.90043,0.47732 0.90988,0.50067 0.75316,1.86152 l -0.15872,1.37813 0.99322,0.25563 c 0.54626,0.1406 1.94571,0.47148 3.10988,0.73529 1.16416,0.26382 2.27403,0.60018 2.46636,0.74749 1.20771,0.92496 1.3701,1.2207 1.3701,2.49521 0,1.21731 -0.0638,1.34075 -0.98769,1.91176 z m -3.18355,-2.55306 c -0.25851,-0.35373 -1.96946,-0.94477 -3.76626,-1.30103 -2.19732,-0.43568 -6.21867,-0.11508 -7.61967,0.60747 -0.62555,0.32262 -1.20026,0.7505 -1.27714,0.95084 -0.15358,0.40022 0.33245,1.48295 0.63648,1.4179 0.10479,-0.0224 0.48819,0.042 0.85199,0.14321 0.3638,0.10119 1.79255,0.0488 3.175,-0.11643 1.38245,-0.16522 3.57548,-0.35414 4.87341,-0.41981 2.86639,-0.14503 3.70564,-0.48923 3.12619,-1.28215 z m -7.27199,-5.44124 c -4.92348,-0.15457 -7.38927,0.62399 -5.89745,1.86209 0.72591,0.60245 4.91425,-0.16148 6.16203,-1.12392 0.50959,-0.39306 0.3933,-0.71751 -0.26458,-0.73817 z m -16.4516,4.79276 c -0.49904,-0.30842 -0.94552,-0.64555 -0.99219,-0.74919 -0.0467,-0.10363 -0.48356,-0.41045 -0.97086,-0.68182 l -0.88601,-0.4934 -0.7517,0.75798 c -0.41343,0.4169 -0.997,0.98718 -1.29681,1.2673 -0.7608,0.71086 -0.68952,0.87785 0.44708,1.04737 2.14043,0.31924 5.35782,0.0919 5.35782,-0.37856 0,-0.11491 -0.4083,-0.46126 -0.90733,-0.76968 z m 8.63018,-18.93844 c -0.0529,0.43153 -0.57403,1.35545 -1.15819,2.05316 -1.58806,1.89677 -2.25974,2.96632 -2.72681,4.34206 -0.60303,1.77616 -0.44565,1.98961 1.31442,1.78275 1.89148,-0.22231 1.88363,0.0993 -0.036,1.47393 -1.94421,1.39221 -2.87549,1.43464 -3.41001,0.15535 -0.21086,-0.50465 -0.38338,-1.1724 -0.38338,-1.48389 0,-0.48261 -0.1052,-0.53995 -0.71146,-0.38779 -0.39131,0.0982 -1.03477,0.40878 -1.42991,0.69015 -0.39514,0.28136 -0.85228,0.51157 -1.01587,0.51157 -0.16359,0 -1.02153,0.36552 -1.90654,0.81228 -2.00931,1.01429 -3.04739,1.07752 -3.73568,0.22752 -0.37026,-0.45725 -0.47081,-0.87658 -0.36562,-1.52479 0.16149,-0.99512 1.0344,-2.79921 1.65439,-3.4192 0.60247,-0.60246 1.24974,-1.65121 1.10713,-1.79382 -0.30144,-0.30144 -3.4162,2.06726 -4.72711,3.59485 -0.79037,0.92101 -2.48861,2.7235 -3.77388,4.00553 -2.10987,2.10456 -2.43354,2.33096 -3.33243,2.33096 -1.35921,0 -2.01163,-0.7476 -1.9785,-2.26712 0.0258,-1.18303 -0.21328,-1.27982 -0.88061,-0.35649 -0.46284,0.64038 -2.57152,1.82986 -3.24393,1.82986 -0.91887,0 -1.53443,-0.4715 -1.72028,-1.31768 -0.19356,-0.88124 -0.66261,-1.34341 -0.66261,-0.65288 0,0.24305 -0.50548,1.05375 -1.12329,1.80155 -1.59972,1.93632 -1.60219,1.93843 -2.48756,2.13289 -1.9763,0.43407 -1.85002,-2.08975 0.27697,-5.53575 0.35928,-0.58208 0.95168,-1.6082 1.31643,-2.28026 0.36475,-0.67205 0.96789,-1.67093 1.34031,-2.21973 0.61222,-0.90216 0.90195,-1.9823 0.53171,-1.9823 -0.82567,0 -4.88166,3.54367 -4.88166,4.26505 0,0.14448 -0.33454,0.5834 -0.74343,0.97538 -0.40889,0.39198 -1.51022,1.65886 -2.4474,2.81529 -1.91486,2.36284 -3.3259,3.85053 -3.65214,3.85053 -0.50608,0 -1.09452,-1.03579 -1.09452,-1.92662 0,-1.0194 0.46667,-2.30672 0.83621,-2.30672 0.12217,0 0.22212,-0.16037 0.22212,-0.35639 0,-0.19601 0.24974,-0.6425 0.55498,-0.99218 0.30523,-0.34969 0.79536,-1.11205 1.08916,-1.69413 0.2938,-0.58209 0.68565,-1.23693 0.87078,-1.45521 0.46525,-0.54856 0.77834,-2.11667 0.42262,-2.11667 -0.15373,0 -0.48786,0.32742 -0.74252,0.7276 -0.25465,0.40019 -0.53315,0.78714 -0.61887,0.8599 -0.0857,0.0728 -0.53454,0.68891 -0.99737,1.36923 -0.46282,0.68031 -0.9964,1.39469 -1.18574,1.5875 -0.18933,0.19281 -0.71301,0.8896 -1.16373,1.54842 -0.79643,1.16414 -1.84885,2.47207 -2.79337,3.47155 -0.25467,0.26948 -0.46302,0.56614 -0.46302,0.65924 0,0.32627 -0.9316,0.87231 -1.50246,0.88065 -0.31703,0.005 -0.76351,-0.17869 -0.99219,-0.40736 -0.44955,-0.44955 -0.55629,-1.99019 -0.18779,-2.71048 0.36146,-0.70653 0.59559,-1.90094 0.37237,-1.89969 -0.11191,6.3e-4 -0.79879,0.54329 -1.52639,1.20592 -0.72761,0.66262 -1.82525,1.58484 -2.43922,2.04937 -0.61396,0.46454 -1.11998,0.99344 -1.12448,1.17534 -0.005,0.1819 -0.16602,0.33073 -0.35893,0.33073 -0.19292,0 -0.62714,0.2942 -0.96495,0.65378 -0.86889,0.92488 -2.1932,1.31813 -3.22624,0.95802 -1.11934,-0.39021 -1.5251,-1.00858 -1.53506,-2.33941 -0.0112,-1.49562 -0.39359,-1.42555 -1.8605,0.34093 -1.33212,1.60417 -1.75406,1.83436 -2.70186,1.47401 -1.03008,-0.39164 -1.40883,-1.62308 -1.02572,-3.33499 0.31455,-1.40555 0.16893,-3.30859 -0.25317,-3.30859 -0.46098,0 -3.42758,1.40393 -3.42758,1.62208 0,0.1265 -0.1177,0.23 -0.26156,0.23 -0.49495,0 -1.32334,0.91021 -1.60494,1.76348 -0.38243,1.15876 -2.69808,5.11285 -3.40577,5.81551 -0.57486,0.57078 -1.35891,0.57961 -2.06992,0.0233 -0.46276,-0.36207 -0.4162,-2.17492 0.0661,-2.57523 0.21828,-0.18115 0.39688,-0.49841 0.39688,-0.70502 0,-0.2066 0.12082,-0.51945 0.2685,-0.69521 0.79747,-0.94912 2.11275,-2.83108 2.11275,-3.02301 0,-0.12191 0.20836,-0.41467 0.46302,-0.65057 1.4828,-1.37359 2.17965,-2.7822 1.19062,-2.4067 -0.50527,0.19183 -1.27519,0.85624 -3.22627,2.78416 -1.34055,1.32463 -1.73826,1.47039 -2.49741,0.91528 -0.69728,-0.50986 -0.0874,-1.67187 1.07963,-2.05702 0.49521,-0.16343 1.04208,-0.52406 1.21529,-0.8014 0.1732,-0.27734 0.43827,-0.50426 0.58905,-0.50426 0.95264,0 9.3874,-7.7538 9.38915,-8.63113 5.4e-4,-0.27334 0.26688,-0.91371 0.59186,-1.42303 0.76954,-1.20607 1.67101,-2.8561 2.05986,-3.77032 0.17021,-0.40018 0.41688,-0.7276 0.54817,-0.7276 0.13128,0 0.2387,-0.17437 0.2387,-0.38749 0,-1.10599 5.64824,-10.00094 6.92119,-10.89963 0.68314,-0.48228 0.93918,-0.52848 1.6405,-0.29597 1.12189,0.37193 1.37371,0.658 1.85643,2.10879 0.32589,0.97944 0.35127,1.42601 0.12031,2.11666 -0.40399,1.20808 -2.08033,3.39418 -4.51612,5.88948 -1.12946,1.15705 -2.05356,2.17303 -2.05356,2.25774 0,0.0847 -1.24958,1.40022 -2.77685,2.92336 -1.52727,1.52314 -2.77743,2.91818 -2.77813,3.10008 -0.002,0.44545 0.57628,0.41776 1.20493,-0.0577 1.26434,-0.9563 2.76255,-0.23518 2.76255,1.32968 0,0.9115 -0.19087,1.19898 -1.86904,2.8151 -1.02798,0.98996 -1.98048,1.79993 -2.11667,1.79993 -0.38362,0 -0.29272,0.56996 0.17296,1.08453 0.27775,0.30691 0.4703,1.19009 0.56697,2.60052 0.0805,1.17468 0.23202,2.13578 0.33667,2.13578 0.24282,0 2.45395,-1.98263 4.88874,-4.38353 3.16593,-3.12188 4.9159,-4.42255 7.61621,-5.66077 1.41624,-0.64941 2.57499,-1.31944 2.57499,-1.48895 0,-0.16951 0.1786,-0.45642 0.39688,-0.63758 0.33259,-0.27603 0.39687,-0.23384 0.39687,0.26049 0,0.45824 0.10333,0.54721 0.46302,0.39867 1.36496,-0.56365 2.54312,-0.67683 2.93775,-0.2822 0.70237,0.70237 0.0296,3.19329 -1.66218,6.15459 -1.40481,2.45893 -1.92461,3.89058 -1.67954,4.62581 0.15235,0.45703 2.70207,-2.11349 3.23191,-3.25826 0.34645,-0.74856 2.00982,-3.27312 3.77964,-5.73651 0.96114,-1.3378 3.46334,-1.77493 3.88406,-0.67854 0.42648,1.11137 -0.0333,2.16261 -2.47754,5.66482 -0.25587,0.36661 -0.5461,0.92141 -0.64496,1.23288 -0.0989,0.31146 -0.35372,0.71069 -0.56636,0.88717 -0.52699,0.43736 -0.48595,0.78525 0.0926,0.78525 0.65088,0 1.22604,-0.58174 4.5779,-4.63021 1.4603,-1.7638 3.77682,-4.19992 4.63748,-4.87691 1.39493,-1.09725 3.26993,-0.42478 3.26993,1.17278 0,0.78634 -1.92591,4.43361 -3.11226,5.89394 -1.04493,1.28627 -2.06752,3.23415 -1.69786,3.23415 0.29911,0 1.643,-1.47551 2.95203,-3.24115 0.88806,-1.19782 1.27981,-1.52135 1.84217,-1.52135 0.40608,0 0.94464,-0.25685 1.24825,-0.59532 0.78993,-0.88061 1.90984,-1.78593 2.20927,-1.78593 0.14441,0 0.26257,-0.10614 0.26257,-0.23586 0,-0.12972 0.44648,-0.42414 0.99219,-0.65427 1.13766,-0.47976 2.33384,-1.42828 2.09828,-1.66385 -0.19463,-0.19463 -2.74182,0.60489 -3.52317,1.10585 -1.00057,0.64153 -0.9285,0.0587 0.11311,-0.9147 1.41127,-1.31893 1.89592,-1.55172 3.89561,-1.87117 1.84583,-0.29487 3.37869,-0.15 3.79921,0.35907 0.13768,0.16668 0.33079,0.73369 0.42914,1.26002 0.18733,1.00258 0.0568,1.21714 -2.31496,3.80471 -0.40056,0.43702 -0.79554,1.00293 -0.87773,1.25759 -0.0822,0.25466 -0.26046,0.46302 -0.39618,0.46302 -0.13571,0 -0.24675,0.13759 -0.24675,0.30576 0,0.16816 -0.29954,0.69847 -0.66564,1.17845 -0.74538,0.97725 -1.11565,2.33355 -0.70614,2.58664 0.58362,0.36069 1.79222,-0.48269 4.28719,-2.99165 1.43365,-1.44169 2.80688,-2.73333 3.05162,-2.87029 0.24474,-0.13696 1.4133,-1.19893 2.59679,-2.35992 1.18349,-1.16099 2.3304,-2.19263 2.54868,-2.29252 0.21828,-0.0999 0.87312,-0.4727 1.45521,-0.82847 1.78219,-1.08927 2.86369,-1.54056 3.96285,-1.65366 0.57885,-0.0596 1.65041,-0.26616 2.38125,-0.45913 0.73085,-0.19296 1.44787,-0.37708 1.59339,-0.40915 0.47833,-0.10541 1.31679,0.009 1.65848,0.22545 0.43933,0.27885 0.76138,1.56013 0.64042,2.54787 z m -3.95254,0.77252 c -0.25466,0.0757 -0.79044,0.21565 -1.19063,0.3111 -0.40018,0.0954 -0.7276,0.28672 -0.7276,0.42505 0,0.13834 -0.11634,0.17961 -0.25854,0.0917 -0.24464,-0.15119 -2.19993,0.8101 -3.09189,1.52009 -1.36762,1.0886 -3.46291,3.17889 -3.85343,3.84422 -0.43954,0.74887 -0.43672,0.79691 0.0739,1.25903 0.47896,0.43345 0.666,0.44764 1.91219,0.14511 2.62859,-0.63813 2.90977,-0.83929 5.28391,-3.78013 0.5457,-0.67597 0.99218,-1.35782 0.99218,-1.51523 0,-0.15741 0.0915,-0.2862 0.2033,-0.2862 0.26681,0 1.10355,-1.35657 1.11258,-1.80377 0.004,-0.20912 -0.17819,-0.29353 -0.45598,-0.211 z m -7.16889,0.95644 c -0.12297,0 -0.43908,0.23812 -0.70246,0.52916 -0.54354,0.6006 -0.37495,0.68519 0.40046,0.20094 0.53847,-0.33628 0.70137,-0.7301 0.302,-0.7301 z m -14.59101,3.62103 c -0.72646,0.3769 -1.82779,1.25281 -2.4474,1.94647 -1.85136,2.07262 -1.88072,2.11854 -1.55973,2.43953 0.57206,0.57206 2.54205,-0.97757 4.04604,-3.18268 0.46983,-0.68886 0.95048,-1.29217 1.06809,-1.34067 0.11761,-0.0485 0.21384,-0.19164 0.21384,-0.31806 0,-0.12643 -0.59438,0.0785 -1.32084,0.45541 z m -24.05214,-1.61996 c -0.46641,-0.28825 -2.87365,0.71469 -3.83981,1.59981 -0.5408,0.49544 -1.30314,1.07062 -1.69409,1.27817 -2.04625,1.08635 -5.8702,5.41885 -5.8702,6.65086 0,1.90626 1.81959,1.12936 5.80669,-2.47928 4.53053,-4.10047 4.79318,-4.37163 5.3067,-5.47876 0.57946,-1.24929 0.60322,-1.37765 0.29071,-1.5708 z m -10.08119,-16.42087 c -0.29104,0.26339 -0.52916,0.63311 -0.52916,0.82161 0,0.18849 -0.16122,0.43793 -0.35825,0.55431 -0.19704,0.11636 -0.50573,0.49225 -0.68597,0.83529 -0.42971,0.81783 0.0173,1.35441 0.67413,0.80926 0.51996,-0.43152 1.38263,-2.2645 1.40973,-2.99534 0.0181,-0.48729 0.001,-0.48812 -0.51048,-0.0251 z m -2.34847,4.54497 c -0.27301,0.0714 -0.65977,0.4472 -0.85947,0.83512 -0.1997,0.38793 -0.44314,0.76605 -0.54097,0.84026 -0.0978,0.0742 -0.26099,0.49095 -0.36257,0.92606 -0.17716,0.75889 -0.16759,0.76956 0.2352,0.26193 0.23093,-0.29104 0.42366,-0.678 0.42828,-0.8599 0.005,-0.1819 0.19404,-0.33074 0.42091,-0.33074 0.22687,0 0.35231,-0.0974 0.27875,-0.21638 -0.0735,-0.11902 0.098,-0.38343 0.38126,-0.58758 0.65878,-0.47482 0.67088,-1.03934 0.0186,-0.86877 z m -4.86142,11.34237 c -0.97824,0.29626 -2.12425,1.08306 -3.13715,2.15382 -1.12635,1.1907 -1.50404,1.99503 -0.81812,1.7423 2.31316,-0.85227 6.04601,-4.5293 3.95527,-3.89612 z"
         id="path1-2-3-2-2"
         sodipodi:nodetypes="sssssssscssssssssssccsssssscsssscsssssscsssssssssssssscsscssscssssscsssssssssssssssssssssssssssssssssssssssscssssscssssscssssssssssssssssssssssssssssssssssssccssssssssssssssssssscssssssssssssssscssssssssssssssssscccscscssssssscsssssssssssssssssssscsssssccssssscscsssssss" /></g></g></svg>
